<?xml version="1.0" encoding="UTF-8"?>
<!DOCTYPE svg PUBLIC "-//W3C//DTD SVG 1.1//EN" "http://www.w3.org/Graphics/SVG/1.1/DTD/svg11.dtd">
<svg xmlns="http://www.w3.org/2000/svg" version="1.1" width="1468px" height="392px" style="shape-rendering:geometricPrecision; text-rendering:geometricPrecision; image-rendering:optimizeQuality; fill-rule:evenodd; clip-rule:evenodd" xmlns:xlink="http://www.w3.org/1999/xlink">
<g><path style="opacity:0.996" fill="#fefefe" d="M 823.5,78.5 C 822.918,83.4655 822.584,88.4655 822.5,93.5C 822.509,97.893 823.176,101.893 824.5,105.5C 824.5,105.833 824.5,106.167 824.5,106.5C 822.896,107.287 822.229,108.62 822.5,110.5C 836.167,110.5 849.833,110.5 863.5,110.5C 863.181,120.749 863.514,130.916 864.5,141C 877.162,141.5 889.829,141.667 902.5,141.5C 902.181,151.749 902.514,161.916 903.5,172C 916.829,172.5 930.163,172.667 943.5,172.5C 943.5,141.5 943.5,110.5 943.5,79.5C 956.679,78.78 970.012,78.1133 983.5,77.5C 987.132,78.2457 990.798,78.579 994.5,78.5C 1002.82,79.0298 1011.15,79.8631 1019.5,81C 1018.83,81.3333 1018.17,81.6667 1017.5,82C 1019.71,84.0842 1020.05,86.4175 1018.5,89C 1019.18,157.833 1019.84,226.667 1020.5,295.5C 995.005,296.498 969.339,296.831 943.5,296.5C 943.5,275.5 943.5,254.5 943.5,233.5C 930.5,233.5 917.5,233.5 904.5,233.5C 903.506,223.681 903.173,213.681 903.5,203.5C 891.011,202.505 878.344,202.171 865.5,202.5C 865.5,192.167 865.5,181.833 865.5,171.5C 851.656,171.171 837.99,171.504 824.5,172.5C 822.189,213.768 821.856,255.101 823.5,296.5C 798.5,296.5 773.5,296.5 748.5,296.5C 748.5,225.833 748.5,155.167 748.5,84.5C 748.573,82.9731 747.906,81.9731 746.5,81.5C 746.953,80.5416 747.619,79.7083 748.5,79C 771.517,78.8028 794.517,78.3028 817.5,77.5C 819.512,77.8396 821.512,78.1729 823.5,78.5 Z"/></g>
<g><path style="opacity:0.996" fill="#fefefe" d="M 127.5,78.5 C 189.664,79.4991 251.998,79.8324 314.5,79.5C 315.13,89.8697 315.13,100.203 314.5,110.5C 328.01,110.829 341.344,110.496 354.5,109.5C 355.5,109.833 356.167,110.5 356.5,111.5C 355.833,141.336 355.167,171.336 354.5,201.5C 353.914,201.291 353.414,200.957 353,200.5C 341.24,202.144 329.407,203.144 317.5,203.5C 316.508,203.328 315.842,203.662 315.5,204.5C 314.506,213.986 314.173,223.652 314.5,233.5C 263.166,233.333 211.832,233.5 160.5,234C 159.507,254.424 159.173,274.924 159.5,295.5C 134.003,296.663 108.337,296.83 82.5,296C 81.944,295.617 81.6107,295.117 81.5,294.5C 83.2212,240.505 84.2212,186.172 84.5,131.5C 83.2705,118.997 83.2705,106.497 84.5,94C 84.653,89.0186 83.9863,84.1852 82.5,79.5C 97.324,78.5039 112.324,78.1706 127.5,78.5 Z M 275.5,202.5 C 260.833,202.5 246.167,202.5 231.5,202.5C 208.164,202.667 184.831,202.5 161.5,202C 161.281,179.58 161.281,157.08 161.5,134.5C 161.5,126.5 161.5,118.5 161.5,110.5C 199.835,110.333 238.168,110.5 276.5,111C 277.163,126.261 277.496,141.594 277.5,157C 277.499,172.515 276.833,187.682 275.5,202.5 Z"/></g>
<g><path style="opacity:0.133" fill="#f2ecea" d="M 127.5,78.5 C 190.17,78.1667 252.837,78.5 315.5,79.5C 316.155,89.3636 316.822,99.1969 317.5,109C 329.829,109.5 342.162,109.667 354.5,109.5C 341.344,110.496 328.01,110.829 314.5,110.5C 315.13,100.203 315.13,89.8697 314.5,79.5C 251.998,79.8324 189.664,79.4991 127.5,78.5 Z"/></g>
<g><path style="opacity:0.16" fill="#f2ebea" d="M 648.5,79.5 C 648.819,89.4163 648.486,99.2496 647.5,109C 648.448,109.483 649.448,109.649 650.5,109.5C 662.505,109.333 674.505,109.5 686.5,110C 687.381,110.708 688.047,111.542 688.5,112.5C 687.833,112.5 687.167,112.5 686.5,112.5C 686.389,111.883 686.056,111.383 685.5,111C 672.504,110.5 659.504,110.333 646.5,110.5C 646.181,100.251 646.514,90.0842 647.5,80C 583.168,79.5 518.834,79.3333 454.5,79.5C 516.509,78.8169 578.676,78.1502 641,77.5C 643.821,77.4078 646.321,78.0744 648.5,79.5 Z"/></g>
<g><path style="opacity:0.206" fill="#f9f4f1" d="M 1350.5,78.5 C 1350.5,78.8333 1350.5,79.1667 1350.5,79.5C 1305,79.8321 1259.66,79.4988 1214.5,78.5C 1260.02,78.4609 1305.36,78.4609 1350.5,78.5 Z"/></g>
<g><path style="opacity:0.993" fill="#fefefe" d="M 454.5,79.5 C 518.834,79.3333 583.168,79.5 647.5,80C 646.514,90.0842 646.181,100.251 646.5,110.5C 659.504,110.333 672.504,110.5 685.5,111C 686.056,111.383 686.389,111.883 686.5,112.5C 686.333,162.168 686.5,211.834 687,261.5C 687.278,262.416 687.778,263.082 688.5,263.5C 688.389,264.117 688.056,264.617 687.5,265C 675.122,265.206 662.788,265.706 650.5,266.5C 650.44,265.957 650.107,265.624 649.5,265.5C 648.571,266.689 648.238,268.022 648.5,269.5C 647.778,269.918 647.278,270.584 647,271.5C 646.803,279.911 646.303,288.245 645.5,296.5C 581.5,296.5 517.5,296.5 453.5,296.5C 453.5,286.167 453.5,275.833 453.5,265.5C 440.656,265.829 427.989,265.495 415.5,264.5C 415.167,213.496 415.5,162.496 416.5,111.5C 429.121,110.686 441.788,110.186 454.5,110C 454.57,99.9834 454.57,89.8167 454.5,79.5 Z M 609.5,112.5 C 609.5,163.167 609.5,213.833 609.5,264.5C 599.167,264.5 588.833,264.5 578.5,264.5C 556.167,264.5 533.833,264.5 511.5,264.5C 505.5,264.5 499.5,264.5 493.5,264.5C 493.5,218.833 493.5,173.167 493.5,127.5C 493.5,121.833 493.5,116.167 493.5,110.5C 532.514,109.839 571.181,110.506 609.5,112.5 Z"/></g>
<g><path style="opacity:0.993" fill="#fefefe" d="M 1214.5,78.5 C 1259.66,79.4988 1305,79.8321 1350.5,79.5C 1351.83,83.951 1352.49,88.7843 1352.5,94C 1352.49,99.0798 1352.15,104.08 1351.5,109C 1299.83,109.333 1248.17,109.667 1196.5,110C 1195.51,120.084 1195.18,130.251 1195.5,140.5C 1182.83,140.5 1170.17,140.5 1157.5,140.5C 1157.5,171.833 1157.5,203.167 1157.5,234.5C 1170.17,234.5 1182.83,234.5 1195.5,234.5C 1196.49,234.328 1197.16,234.662 1197.5,235.5C 1196.88,235.611 1196.38,235.944 1196,236.5C 1195.5,246.161 1195.33,255.828 1195.5,265.5C 1222.41,265.828 1249.24,265.495 1276,264.5C 1276.67,244.167 1276.67,223.833 1276,203.5C 1263.25,202.511 1250.41,202.178 1237.5,202.5C 1237.5,192.5 1237.5,182.5 1237.5,172.5C 1275.83,172.5 1314.17,172.5 1352.5,172.5C 1353.34,172.842 1353.67,173.508 1353.5,174.5C 1352.78,174.918 1352.28,175.584 1352,176.5C 1351.83,196 1351.67,215.5 1351.5,235C 1351.5,254.845 1352.17,274.345 1353.5,293.5C 1353.5,294.5 1353.5,295.5 1353.5,296.5C 1289.17,296.5 1224.83,296.5 1160.5,296.5C 1159.53,286.916 1159.19,277.25 1159.5,267.5C 1159.17,266.5 1158.5,265.833 1157.5,265.5C 1144.46,266.147 1131.79,265.48 1119.5,263.5C 1119.24,253.461 1119.58,243.461 1120.5,233.5C 1107.5,233.5 1094.5,233.5 1081.5,233.5C 1080.51,202.907 1080.17,172.24 1080.5,141.5C 1080.84,140.662 1081.51,140.328 1082.5,140.5C 1094.33,141.66 1106.33,141.826 1118.5,141C 1119.49,130.916 1119.82,120.749 1119.5,110.5C 1133.17,110.5 1146.83,110.5 1160.5,110.5C 1160.74,109.209 1160.4,108.209 1159.5,107.5C 1159.5,107.167 1159.5,106.833 1159.5,106.5C 1160.43,97.0992 1160.77,87.7659 1160.5,78.5C 1178.21,78.2285 1196.21,78.2285 1214.5,78.5 Z"/></g>
<g><path style="opacity:1" fill="#eee9e8" d="M 1160.5,78.5 C 1160.77,87.7659 1160.43,97.0992 1159.5,106.5C 1158.83,97.8333 1158.17,89.1667 1157.5,80.5C 1157.97,79.0937 1158.97,78.427 1160.5,78.5 Z"/></g>
<g><path style="opacity:0.833" fill="#e1d9d8" d="M 823.5,78.5 C 824.338,78.8417 824.672,79.5084 824.5,80.5C 823.46,88.8197 823.46,97.153 824.5,105.5C 823.176,101.893 822.509,97.893 822.5,93.5C 822.584,88.4655 822.918,83.4655 823.5,78.5 Z"/></g>
<g><path style="opacity:0.12" fill="#cac1c2" d="M 1157.5,80.5 C 1158.17,89.1667 1158.83,97.8333 1159.5,106.5C 1159.5,106.833 1159.5,107.167 1159.5,107.5C 1159.5,108.833 1158.83,109.5 1157.5,109.5C 1157.5,99.8333 1157.5,90.1667 1157.5,80.5 Z"/></g>
<g><path style="opacity:0.207" fill="#c3b8b7" d="M 648.5,79.5 C 649.189,89.4013 649.856,99.4013 650.5,109.5C 649.448,109.649 648.448,109.483 647.5,109C 648.486,99.2496 648.819,89.4163 648.5,79.5 Z"/></g>
<g><path style="opacity:0.106" fill="#cbc2c0" d="M 824.5,80.5 C 825.494,89.6517 825.827,98.985 825.5,108.5C 825.103,109.525 824.437,109.692 823.5,109C 824.252,108.329 824.586,107.496 824.5,106.5C 824.5,106.167 824.5,105.833 824.5,105.5C 823.46,97.153 823.46,88.8197 824.5,80.5 Z"/></g>
<g><path style="opacity:0.076" fill="#d8cecc" d="M 610.5,112.5 C 610.167,112.5 609.833,112.5 609.5,112.5C 571.181,110.506 532.514,109.839 493.5,110.5C 493.5,116.167 493.5,121.833 493.5,127.5C 492.511,122.025 492.178,116.358 492.5,110.5C 531.663,109.501 570.996,109.168 610.5,109.5C 610.5,110.5 610.5,111.5 610.5,112.5 Z"/></g>
<g><path style="opacity:0.273" fill="#ede2e2" d="M 1159.5,107.5 C 1160.4,108.209 1160.74,109.209 1160.5,110.5C 1146.83,110.5 1133.17,110.5 1119.5,110.5C 1131.99,109.505 1144.66,109.171 1157.5,109.5C 1158.83,109.5 1159.5,108.833 1159.5,107.5 Z"/></g>
<g><path style="opacity:0.132" fill="#dcd7d7" d="M 454.5,79.5 C 454.57,89.8167 454.57,99.9834 454.5,110C 441.788,110.186 429.121,110.686 416.5,111.5C 415.5,162.496 415.167,213.496 415.5,264.5C 414.335,213.335 414.168,162.002 415,110.5C 427.425,109.677 439.925,109.177 452.5,109C 453.155,99.0684 453.822,89.2351 454.5,79.5 Z"/></g>
<g><path style="opacity:0.206" fill="#e1d9da" d="M 1119.5,110.5 C 1119.82,120.749 1119.49,130.916 1118.5,141C 1106.33,141.826 1094.33,141.66 1082.5,140.5C 1094.17,140.667 1105.84,140.5 1117.5,140C 1118.16,130.068 1118.82,120.235 1119.5,110.5 Z"/></g>
<g><path style="opacity:0.141" fill="#ded8d7" d="M 1350.5,79.5 C 1350.5,79.1667 1350.5,78.8333 1350.5,78.5C 1351.5,78.5 1352.5,78.5 1353.5,78.5C 1353.82,89.0821 1353.49,99.5821 1352.5,110C 1300.83,110.5 1249.17,110.667 1197.5,110.5C 1197.82,120.749 1197.49,130.916 1196.5,141C 1183.84,141.5 1171.17,141.667 1158.5,141.5C 1158.5,172.167 1158.5,202.833 1158.5,233.5C 1171.01,233.171 1183.34,233.505 1195.5,234.5C 1182.83,234.5 1170.17,234.5 1157.5,234.5C 1157.5,203.167 1157.5,171.833 1157.5,140.5C 1170.17,140.5 1182.83,140.5 1195.5,140.5C 1195.18,130.251 1195.51,120.084 1196.5,110C 1248.17,109.667 1299.83,109.333 1351.5,109C 1352.15,104.08 1352.49,99.0798 1352.5,94C 1352.49,88.7843 1351.83,83.951 1350.5,79.5 Z"/></g>
<g><path style="opacity:0.114" fill="#dbd9d9" d="M 609.5,112.5 C 609.833,112.5 610.167,112.5 610.5,112.5C 610.5,163.5 610.5,214.5 610.5,265.5C 599.654,265.828 588.987,265.494 578.5,264.5C 588.833,264.5 599.167,264.5 609.5,264.5C 609.5,213.833 609.5,163.167 609.5,112.5 Z"/></g>
<g><path style="opacity:0.309" fill="#ebe1df" d="M 159.5,119.5 C 160.167,124.5 160.833,129.5 161.5,134.5C 161.281,157.08 161.281,179.58 161.5,202C 184.831,202.5 208.164,202.667 231.5,202.5C 219.838,203.167 208.005,203.5 196,203.5C 183.1,203.639 170.267,203.139 157.5,202C 159.486,174.726 160.153,147.226 159.5,119.5 Z"/></g>
<g><path style="opacity:0.373" fill="#dad2d2" d="M 275.5,202.5 C 276.833,187.682 277.499,172.515 277.5,157C 277.496,141.594 277.163,126.261 276.5,111C 238.168,110.5 199.835,110.333 161.5,110.5C 161.5,118.5 161.5,126.5 161.5,134.5C 160.833,129.5 160.167,124.5 159.5,119.5C 159.216,116.223 159.549,113.057 160.5,110C 199.832,109.5 239.165,109.333 278.5,109.5C 278.5,140.833 278.5,172.167 278.5,203.5C 277.209,203.737 276.209,203.404 275.5,202.5 Z"/></g>
<g><path style="opacity:0.804" fill="#ebe7e7" d="M 82.5,79.5 C 83.9863,84.1852 84.653,89.0186 84.5,94C 83.2705,106.497 83.2705,118.997 84.5,131.5C 84.2212,186.172 83.2212,240.505 81.5,294.5C 81.1674,222.665 81.5008,150.998 82.5,79.5 Z"/></g>
<g><path style="opacity:0.175" fill="#ded7d8" d="M 943.5,79.5 C 943.5,110.5 943.5,141.5 943.5,172.5C 930.163,172.667 916.829,172.5 903.5,172C 902.514,161.916 902.181,151.749 902.5,141.5C 889.829,141.667 877.162,141.5 864.5,141C 863.514,130.916 863.181,120.749 863.5,110.5C 849.833,110.5 836.167,110.5 822.5,110.5C 822.229,108.62 822.896,107.287 824.5,106.5C 824.586,107.496 824.252,108.329 823.5,109C 824.437,109.692 825.103,109.525 825.5,108.5C 838.425,109.315 851.425,109.815 864.5,110C 864.863,120.119 865.197,130.286 865.5,140.5C 878.171,140.333 890.838,140.5 903.5,141C 904.486,151.084 904.819,161.251 904.5,171.5C 917.08,171.822 929.58,171.489 942,170.5C 942.168,139.997 942.668,109.664 943.5,79.5 Z"/></g>
<g><path style="opacity:0.398" fill="#e7e0df" d="M 824.5,172.5 C 837.99,171.504 851.656,171.171 865.5,171.5C 865.5,181.833 865.5,192.167 865.5,202.5C 878.344,202.171 891.011,202.505 903.5,203.5C 890.5,203.5 877.5,203.5 864.5,203.5C 864.819,193.251 864.486,183.084 863.5,173C 850.838,172.5 838.171,172.333 825.5,172.5C 825.167,172.5 824.833,172.5 824.5,172.5 Z"/></g>
<g><path style="opacity:0.116" fill="#e2dddc" d="M 356.5,111.5 C 356.667,141.835 356.5,172.168 356,202.5C 343.246,203.489 330.413,203.822 317.5,203.5C 329.407,203.144 341.24,202.144 353,200.5C 353.414,200.957 353.914,201.291 354.5,201.5C 355.167,171.336 355.833,141.336 356.5,111.5 Z"/></g>
<g><path style="opacity:0.38" fill="#eae5e4" d="M 492.5,110.5 C 492.178,116.358 492.511,122.025 493.5,127.5C 493.5,173.167 493.5,218.833 493.5,264.5C 499.5,264.5 505.5,264.5 511.5,264.5C 505.021,265.491 498.354,265.824 491.5,265.5C 491.168,213.664 491.501,161.997 492.5,110.5 Z"/></g>
<g><path style="opacity:0.089" fill="#dcd3d3" d="M 746.5,81.5 C 747.906,81.9731 748.573,82.9731 748.5,84.5C 747.833,154.167 747.167,223.833 746.5,293.5C 746.5,222.833 746.5,152.167 746.5,81.5 Z"/></g>
<g><path style="opacity:0.133" fill="#c6c3c2" d="M 317.5,203.5 C 316.527,213.084 316.194,222.75 316.5,232.5C 315.506,223.348 315.173,214.015 315.5,204.5C 315.842,203.662 316.508,203.328 317.5,203.5 Z"/></g>
<g><path style="opacity:0.624" fill="#e6e0e0" d="M 1020.5,295.5 C 1019.84,226.667 1019.18,157.833 1018.5,89C 1020.05,86.4175 1019.71,84.0842 1017.5,82C 1018.17,81.6667 1018.83,81.3333 1019.5,81C 1011.15,79.8631 1002.82,79.0298 994.5,78.5C 1000.2,78.6881 1005.87,78.3548 1011.5,77.5C 1015,77.6918 1018.16,78.6918 1021,80.5C 1021.83,152.335 1021.67,224.001 1020.5,295.5 Z"/></g>
<g><path style="opacity:0.132" fill="#d9d7d8" d="M 1080.5,141.5 C 1080.17,172.24 1080.51,202.907 1081.5,233.5C 1080.17,218.515 1079.5,203.182 1079.5,187.5C 1079.5,171.996 1079.83,156.663 1080.5,141.5 Z"/></g>
<g><path style="opacity:0.671" fill="#f2edec" d="M 748.5,84.5 C 748.5,155.167 748.5,225.833 748.5,296.5C 747.094,296.027 746.427,295.027 746.5,293.5C 747.167,223.833 747.833,154.167 748.5,84.5 Z"/></g>
<g><path style="opacity:0.283" fill="#e3e0df" d="M 1352.5,172.5 C 1314.17,172.5 1275.83,172.5 1237.5,172.5C 1237.5,182.5 1237.5,192.5 1237.5,202.5C 1250.41,202.178 1263.25,202.511 1276,203.5C 1276.67,223.833 1276.67,244.167 1276,264.5C 1249.24,265.495 1222.41,265.828 1195.5,265.5C 1195.33,255.828 1195.5,246.161 1196,236.5C 1196.38,235.944 1196.88,235.611 1197.5,235.5C 1197.5,245.167 1197.5,254.833 1197.5,264.5C 1223.17,264.5 1248.83,264.5 1274.5,264.5C 1275.24,244.905 1275.4,225.239 1275,205.5C 1262.41,203.695 1249.58,202.861 1236.5,203C 1235.22,192.543 1235.22,182.043 1236.5,171.5C 1275.34,171.168 1314,171.501 1352.5,172.5 Z"/></g>
<g><path style="opacity:0.451" fill="#d2c9c7" d="M 824.5,172.5 C 824.833,172.5 825.167,172.5 825.5,172.5C 825.667,213.501 825.5,254.501 825,295.5C 824.617,296.056 824.117,296.389 823.5,296.5C 821.856,255.101 822.189,213.768 824.5,172.5 Z"/></g>
<g><path style="opacity:0.144" fill="#e4dddc" d="M 315.5,204.5 C 315.173,214.015 315.506,223.348 316.5,232.5C 316.389,233.117 316.056,233.617 315.5,234C 264.163,234.167 212.83,234.667 161.5,235.5C 160.845,255.628 160.178,275.628 159.5,295.5C 159.173,274.924 159.507,254.424 160.5,234C 211.832,233.5 263.166,233.333 314.5,233.5C 314.173,223.652 314.506,213.986 315.5,204.5 Z"/></g>
<g><path style="opacity:0.925" fill="#f3e8e9" d="M 1353.5,174.5 C 1353.5,214.167 1353.5,253.833 1353.5,293.5C 1352.17,274.345 1351.5,254.845 1351.5,235C 1351.67,215.5 1351.83,196 1352,176.5C 1352.28,175.584 1352.78,174.918 1353.5,174.5 Z"/></g>
<g><path style="opacity:0.28" fill="#cdc5c3" d="M 686.5,112.5 C 687.167,112.5 687.833,112.5 688.5,112.5C 688.5,162.833 688.5,213.167 688.5,263.5C 687.778,263.082 687.278,262.416 687,261.5C 686.5,211.834 686.333,162.168 686.5,112.5 Z"/></g>
<g><path style="opacity:0.124" fill="#dedadb" d="M 1081.5,233.5 C 1094.5,233.5 1107.5,233.5 1120.5,233.5C 1119.58,243.461 1119.24,253.461 1119.5,263.5C 1118.82,254.098 1118.15,244.598 1117.5,235C 1105.33,234.831 1093.33,234.331 1081.5,233.5 Z"/></g>
<g><path style="opacity:0.216" fill="#ddd7d8" d="M 904.5,233.5 C 917.5,233.5 930.5,233.5 943.5,233.5C 943.5,254.5 943.5,275.5 943.5,296.5C 942.503,276.007 942.169,255.34 942.5,234.5C 929.656,234.829 916.989,234.495 904.5,233.5 Z"/></g>
<g><path style="opacity:1" fill="#ede6e5" d="M 648.5,269.5 C 648.5,278.5 648.5,287.5 648.5,296.5C 647.5,296.5 646.5,296.5 645.5,296.5C 646.303,288.245 646.803,279.911 647,271.5C 647.278,270.584 647.778,269.918 648.5,269.5 Z"/></g>
<g><path style="opacity:0.078" fill="#d0c7c7" d="M 1157.5,265.5 C 1158.5,265.833 1159.17,266.5 1159.5,267.5C 1158.51,276.652 1158.17,285.985 1158.5,295.5C 1157.51,285.681 1157.17,275.681 1157.5,265.5 Z"/></g>
<g><path style="opacity:0.71" fill="#e6e0df" d="M 1159.5,267.5 C 1159.19,277.25 1159.53,286.916 1160.5,296.5C 1159.51,296.672 1158.84,296.338 1158.5,295.5C 1158.17,285.985 1158.51,276.652 1159.5,267.5 Z"/></g>
<g><path style="opacity:0.288" fill="#c8bdbe" d="M 650.5,266.5 C 649.964,276.656 649.298,286.656 648.5,296.5C 648.5,287.5 648.5,278.5 648.5,269.5C 648.238,268.022 648.571,266.689 649.5,265.5C 650.107,265.624 650.44,265.957 650.5,266.5 Z"/></g>
</svg>
