<svg width="1909" height="104" viewBox="0 0 1909 104" fill="none" xmlns="http://www.w3.org/2000/svg">
<g filter="url(#filter0_d_215_288)">
<g filter="url(#filter1_d_215_288)">
<path d="M868.5 3.5369C899 -0.963127 962 -5.96321 997 50.5368C1021.5 22.5368 1096 14.0369 1126 90.0368C1146.5 43.5367 1177 36.5368 1186.5 36.5368" stroke="black" stroke-width="2" stroke-dasharray="7 7"/>
</g>
<path d="M1202 34.5369C1202 37.8506 1199.31 40.5369 1196 40.5369C1192.69 40.5369 1190 37.8506 1190 34.5369C1190 31.2232 1192.69 28.5369 1196 28.5369C1199.31 28.5369 1202 31.2232 1202 34.5369Z" fill="black"/>
<g filter="url(#filter2_d_215_288)">
<path d="M1644 41.037C1654 24.537 1706.5 18.5367 1719.5 49.5367C1752.5 4.03691 1801.5 3.03698 1830.5 6.537" stroke="black" stroke-width="2" stroke-dasharray="7 7"/>
</g>
<path d="M1643 49.5369C1643 52.8506 1640.31 55.5369 1637 55.5369C1633.69 55.5369 1631 52.8506 1631 49.5369C1631 46.2232 1633.69 43.5369 1637 43.5369C1640.31 43.5369 1643 46.2232 1643 49.5369Z" fill="black"/>
<path d="M533 73.783C533.156 63.9861 539.666 61.5369 542.902 61.5369C551.084 61.7431 553.043 69.7869 552.999 73.783C552.543 81.7107 546.355 84.2244 545.508 84.4822C544.83 84.6884 544.748 85.3845 544.791 85.7068L545.182 94.5369H541.078L541.404 85.7068C541.508 84.9333 540.839 84.5681 540.492 84.4822C534.603 82.4197 533.043 76.49 533 73.783Z" fill="black" stroke="black"/>
<path d="M1061 73.783C1061.16 63.9861 1067.67 61.5369 1070.9 61.5369C1079.08 61.7431 1081.04 69.7869 1081 73.783C1080.54 81.7107 1074.35 84.2244 1073.51 84.4822C1072.83 84.6884 1072.75 85.3845 1072.79 85.7068L1073.18 94.5369H1069.08L1069.4 85.7068C1069.51 84.9333 1068.84 84.5681 1068.49 84.4822C1062.6 82.4197 1061.04 76.49 1061 73.783Z" fill="black" stroke="black"/>
<path d="M1589 73.783C1589.16 63.9861 1595.67 61.5369 1598.9 61.5369C1607.08 61.7431 1609.04 69.7869 1609 73.783C1608.54 81.7107 1602.35 84.2244 1601.51 84.4822C1600.83 84.6884 1600.75 85.3845 1600.79 85.7068L1601.18 94.5369H1597.08L1597.4 85.7068C1597.51 84.9333 1596.84 84.5681 1596.49 84.4822C1590.6 82.4197 1589.04 76.49 1589 73.783Z" fill="black" stroke="black"/>
<path d="M591 78.1853C591.125 70.4666 596.333 68.5369 598.922 68.5369C605.467 68.6994 607.034 75.0369 606.999 78.1853C606.635 84.4314 601.684 86.4119 601.006 86.615C600.464 86.7775 600.398 87.3259 600.433 87.5798L600.746 94.5369H597.462L597.723 87.5798C597.806 86.9705 597.271 86.6827 596.993 86.615C592.282 84.99 591.035 80.3181 591 78.1853Z" fill="black" stroke="black"/>
<path d="M1647 78.1853C1647.13 70.4666 1652.33 68.5369 1654.92 68.5369C1661.47 68.6994 1663.03 75.0369 1663 78.1853C1662.63 84.4314 1657.68 86.4119 1657.01 86.615C1656.46 86.7775 1656.4 87.3259 1656.43 87.5798L1656.75 94.5369H1653.46L1653.72 87.5798C1653.81 86.9705 1653.27 86.6827 1652.99 86.615C1648.28 84.99 1647.03 80.3181 1647 78.1853Z" fill="black" stroke="black"/>
<path d="M705 79.4431C705.117 72.3181 710 70.5369 712.426 70.5369C718.563 70.6869 720.032 76.5369 719.999 79.4431C719.657 85.2087 715.016 87.0369 714.381 87.2244C713.873 87.3744 713.811 87.8806 713.843 88.115L714.136 94.5369H711.058L711.303 88.115C711.381 87.5525 710.879 87.2869 710.619 87.2244C706.202 85.7244 705.033 81.4119 705 79.4431Z" fill="black" stroke="black"/>
<path d="M1233 79.4431C1233.12 72.3181 1238 70.5369 1240.43 70.5369C1246.56 70.6869 1248.03 76.5369 1248 79.4431C1247.66 85.2087 1243.02 87.0369 1242.38 87.2244C1241.87 87.3744 1241.81 87.8806 1241.84 88.115L1242.14 94.5369H1239.06L1239.3 88.115C1239.38 87.5525 1238.88 87.2869 1238.62 87.2244C1234.2 85.7244 1233.03 81.4119 1233 79.4431Z" fill="black" stroke="black"/>
<path d="M1761 79.4431C1761.12 72.3181 1766 70.5369 1768.43 70.5369C1774.56 70.6869 1776.03 76.5369 1776 79.4431C1775.66 85.2087 1771.02 87.0369 1770.38 87.2244C1769.87 87.3744 1769.81 87.8806 1769.84 88.115L1770.14 94.5369H1767.06L1767.3 88.115C1767.38 87.5525 1766.88 87.2869 1766.62 87.2244C1762.2 85.7244 1761.03 81.4119 1761 79.4431Z" fill="black" stroke="black"/>
<path d="M799 80.072C799.109 73.2439 803.667 71.5369 805.931 71.5369C811.659 71.6806 813.03 77.2869 813 80.072C812.68 85.5974 808.348 87.3494 807.755 87.5291C807.281 87.6728 807.223 88.158 807.254 88.3826L807.527 94.5369H804.655L804.883 88.3826C804.955 87.8435 804.487 87.5889 804.244 87.5291C800.122 86.0916 799.03 81.9587 799 80.072Z" fill="black" stroke="black"/>
<path d="M1327 80.072C1327.11 73.2439 1331.67 71.5369 1333.93 71.5369C1339.66 71.6806 1341.03 77.2869 1341 80.072C1340.68 85.5974 1336.35 87.3494 1335.76 87.5291C1335.28 87.6728 1335.22 88.158 1335.25 88.3826L1335.53 94.5369H1332.65L1332.88 88.3826C1332.96 87.8435 1332.49 87.5889 1332.24 87.5291C1328.12 86.0916 1327.03 81.9587 1327 80.072Z" fill="black" stroke="black"/>
<path d="M1855 80.072C1855.11 73.2439 1859.67 71.5369 1861.93 71.5369C1867.66 71.6806 1869.03 77.2869 1869 80.072C1868.68 85.5974 1864.35 87.3494 1863.76 87.5291C1863.28 87.6728 1863.22 88.158 1863.25 88.3826L1863.53 94.5369H1860.65L1860.88 88.3826C1860.96 87.8435 1860.49 87.5889 1860.24 87.5291C1856.12 86.0916 1855.03 81.9587 1855 80.072Z" fill="black" stroke="black"/>
<path d="M627 76.2986C627.141 67.6892 633 65.5369 635.912 65.5369C643.276 65.7181 645.038 72.7869 644.999 76.2986C644.589 83.2654 639.019 85.4744 638.257 85.7009C637.647 85.8822 637.573 86.4939 637.612 86.7771L637.964 94.5369H634.27L634.563 86.7771C634.657 86.0974 634.055 85.7764 633.742 85.7009C628.442 83.8884 627.039 78.6775 627 76.2986Z" fill="black" stroke="black"/>
<path d="M1155 76.2986C1155.14 67.6892 1161 65.5369 1163.91 65.5369C1171.28 65.7181 1173.04 72.7869 1173 76.2986C1172.59 83.2654 1167.02 85.4744 1166.26 85.7009C1165.65 85.8822 1165.57 86.4939 1165.61 86.7771L1165.96 94.5369H1162.27L1162.56 86.7771C1162.66 86.0974 1162.06 85.7764 1161.74 85.7009C1156.44 83.8884 1155.04 78.6775 1155 76.2986Z" fill="black" stroke="black"/>
<path d="M1683 76.2986C1683.14 67.6892 1689 65.5369 1691.91 65.5369C1699.28 65.7181 1701.04 72.7869 1701 76.2986C1700.59 83.2654 1695.02 85.4744 1694.26 85.7009C1693.65 85.8822 1693.57 86.4939 1693.61 86.7771L1693.96 94.5369H1690.27L1690.56 86.7771C1690.66 86.0974 1690.06 85.7764 1689.74 85.7009C1684.44 83.8884 1683.04 78.6775 1683 76.2986Z" fill="black" stroke="black"/>
<path d="M918 78.1853C918.125 70.4666 923.333 68.5369 925.922 68.5369C932.467 68.6994 934.034 75.0369 933.999 78.1853C933.635 84.4314 928.684 86.4119 928.006 86.615C927.464 86.7775 927.398 87.3259 927.433 87.5798L927.746 94.5369H924.462L924.723 87.5798C924.806 86.9705 924.271 86.6827 923.993 86.615C919.282 84.99 918.035 80.3181 918 78.1853Z" fill="black" stroke="black"/>
<path d="M1446 78.1853C1446.13 70.4666 1451.33 68.5369 1453.92 68.5369C1460.47 68.6994 1462.03 75.0369 1462 78.1853C1461.63 84.4314 1456.68 86.4119 1456.01 86.615C1455.46 86.7775 1455.4 87.3259 1455.43 87.5798L1455.75 94.5369H1452.46L1452.72 87.5798C1452.81 86.9705 1452.27 86.6827 1451.99 86.615C1447.28 84.99 1446.03 80.3181 1446 78.1853Z" fill="black" stroke="black"/>
<path d="M553 81.3298C553.102 75.0955 557.333 73.5369 559.436 73.5369C564.755 73.6681 566.028 78.7869 566 81.3298C565.703 86.3748 561.68 87.9744 561.13 88.1384C560.69 88.2697 560.636 88.7126 560.664 88.9177L560.918 94.5369H558.251L558.462 88.9177C558.53 88.4255 558.095 88.1931 557.87 88.1384C554.042 86.8259 553.028 83.0525 553 81.3298Z" fill="black" stroke="black"/>
<path d="M1081 81.3298C1081.1 75.0955 1085.33 73.5369 1087.44 73.5369C1092.75 73.6681 1094.03 78.7869 1094 81.3298C1093.7 86.3748 1089.68 87.9744 1089.13 88.1384C1088.69 88.2697 1088.64 88.7126 1088.66 88.9177L1088.92 94.5369H1086.25L1086.46 88.9177C1086.53 88.4255 1086.1 88.1931 1085.87 88.1384C1082.04 86.8259 1081.03 83.0525 1081 81.3298Z" fill="black" stroke="black"/>
<path d="M1609 81.3298C1609.1 75.0955 1613.33 73.5369 1615.44 73.5369C1620.75 73.6681 1622.03 78.7869 1622 81.3298C1621.7 86.3748 1617.68 87.9744 1617.13 88.1384C1616.69 88.2697 1616.64 88.7126 1616.66 88.9177L1616.92 94.5369H1614.25L1614.46 88.9177C1614.53 88.4255 1614.1 88.1931 1613.87 88.1384C1610.04 86.8259 1609.03 83.0525 1609 81.3298Z" fill="black" stroke="black"/>
<path d="M695 80.072C695.109 73.2439 699.667 71.5369 701.931 71.5369C707.659 71.6806 709.03 77.2869 709 80.072C708.68 85.5974 704.348 87.3494 703.755 87.5291C703.281 87.6728 703.223 88.158 703.254 88.3826L703.527 94.5369H700.655L700.883 88.3826C700.955 87.8435 700.487 87.5889 700.244 87.5291C696.122 86.0916 695.03 81.9587 695 80.072Z" fill="black" stroke="black"/>
<path d="M1223 80.072C1223.11 73.2439 1227.67 71.5369 1229.93 71.5369C1235.66 71.6806 1237.03 77.2869 1237 80.072C1236.68 85.5974 1232.35 87.3494 1231.76 87.5291C1231.28 87.6728 1231.22 88.158 1231.25 88.3826L1231.53 94.5369H1228.65L1228.88 88.3826C1228.96 87.8435 1228.49 87.5889 1228.24 87.5291C1224.12 86.0916 1223.03 81.9587 1223 80.072Z" fill="black" stroke="black"/>
<path d="M832 77.5564C832.125 69.5408 837.333 67.5369 839.922 67.5369C846.467 67.7056 848.034 74.2869 847.999 77.5564C847.635 84.0427 842.684 86.0994 842.006 86.3103C841.464 86.4791 841.398 87.0486 841.433 87.3123L841.746 94.5369H838.462L838.723 87.3123C838.806 86.6794 838.271 86.3806 837.993 86.3103C833.282 84.6228 832.035 79.7712 832 77.5564Z" fill="black" stroke="black"/>
<path d="M1360 77.5564C1360.13 69.5408 1365.33 67.5369 1367.92 67.5369C1374.47 67.7056 1376.03 74.2869 1376 77.5564C1375.63 84.0427 1370.68 86.0994 1370.01 86.3103C1369.46 86.4791 1369.4 87.0486 1369.43 87.3123L1369.75 94.5369H1366.46L1366.72 87.3123C1366.81 86.6794 1366.27 86.3806 1365.99 86.3103C1361.28 84.6228 1360.03 79.7712 1360 77.5564Z" fill="black" stroke="black"/>
<path d="M1888 77.5564C1888.13 69.5408 1893.33 67.5369 1895.92 67.5369C1902.47 67.7056 1904.03 74.2869 1904 77.5564C1903.63 84.0427 1898.68 86.0994 1898.01 86.3103C1897.46 86.4791 1897.4 87.0486 1897.43 87.3123L1897.75 94.5369H1894.46L1894.72 87.3123C1894.81 86.6794 1894.27 86.3806 1893.99 86.3103C1889.28 84.6228 1888.03 79.7712 1888 77.5564Z" fill="black" stroke="black"/>
<path d="M850 81.3298C850.102 75.0955 854.333 73.5369 856.436 73.5369C861.755 73.6681 863.028 78.7869 863 81.3298C862.703 86.3748 858.68 87.9744 858.13 88.1384C857.69 88.2697 857.636 88.7126 857.664 88.9177L857.918 94.5369H855.251L855.462 88.9177C855.53 88.4255 855.095 88.1931 854.87 88.1384C851.042 86.8259 850.028 83.0525 850 81.3298Z" fill="black" stroke="black"/>
<path d="M1378 81.3298C1378.1 75.0955 1382.33 73.5369 1384.44 73.5369C1389.75 73.6681 1391.03 78.7869 1391 81.3298C1390.7 86.3748 1386.68 87.9744 1386.13 88.1384C1385.69 88.2697 1385.64 88.7126 1385.66 88.9177L1385.92 94.5369H1383.25L1383.46 88.9177C1383.53 88.4255 1383.1 88.1931 1382.87 88.1384C1379.04 86.8259 1378.03 83.0525 1378 81.3298Z" fill="black" stroke="black"/>
<path d="M1029 81.3298C1029.1 75.0955 1033.33 73.5369 1035.44 73.5369C1040.75 73.6681 1042.03 78.7869 1042 81.3298C1041.7 86.3748 1037.68 87.9744 1037.13 88.1384C1036.69 88.2697 1036.64 88.7126 1036.66 88.9177L1036.92 94.5369H1034.25L1034.46 88.9177C1034.53 88.4255 1034.1 88.1931 1033.87 88.1384C1030.04 86.8259 1029.03 83.0525 1029 81.3298Z" fill="black" stroke="black"/>
<path d="M1557 81.3298C1557.1 75.0955 1561.33 73.5369 1563.44 73.5369C1568.75 73.6681 1570.03 78.7869 1570 81.3298C1569.7 86.3748 1565.68 87.9744 1565.13 88.1384C1564.69 88.2697 1564.64 88.7126 1564.66 88.9177L1564.92 94.5369H1562.25L1562.46 88.9177C1562.53 88.4255 1562.1 88.1931 1561.87 88.1384C1558.04 86.8259 1557.03 83.0525 1557 81.3298Z" fill="black" stroke="black"/>
<path d="M1013 78.1853C1013.13 70.4666 1018.33 68.5369 1020.92 68.5369C1027.47 68.6994 1029.03 75.0369 1029 78.1853C1028.63 84.4314 1023.68 86.4119 1023.01 86.615C1022.46 86.7775 1022.4 87.3259 1022.43 87.5798L1022.75 94.5369H1019.46L1019.72 87.5798C1019.81 86.9705 1019.27 86.6827 1018.99 86.615C1014.28 84.99 1013.03 80.3181 1013 78.1853Z" fill="black" stroke="black"/>
<path d="M1541 78.1853C1541.13 70.4666 1546.33 68.5369 1548.92 68.5369C1555.47 68.6994 1557.03 75.0369 1557 78.1853C1556.63 84.4314 1551.68 86.4119 1551.01 86.615C1550.46 86.7775 1550.4 87.3259 1550.43 87.5798L1550.75 94.5369H1547.46L1547.72 87.5798C1547.81 86.9705 1547.27 86.6827 1546.99 86.615C1542.28 84.99 1541.03 80.3181 1541 78.1853Z" fill="black" stroke="black"/>
<path d="M655 73.783C655.156 63.9861 661.666 61.5369 664.902 61.5369C673.084 61.7431 675.043 69.7869 674.999 73.783C674.543 81.7107 668.355 84.2244 667.508 84.4822C666.83 84.6884 666.748 85.3845 666.791 85.7068L667.182 94.5369H663.078L663.404 85.7068C663.508 84.9333 662.839 84.5681 662.492 84.4822C656.603 82.4197 655.043 76.49 655 73.783Z" fill="black" stroke="black"/>
<path d="M1183 73.783C1183.16 63.9861 1189.67 61.5369 1192.9 61.5369C1201.08 61.7431 1203.04 69.7869 1203 73.783C1202.54 81.7107 1196.35 84.2244 1195.51 84.4822C1194.83 84.6884 1194.75 85.3845 1194.79 85.7068L1195.18 94.5369H1191.08L1191.4 85.7068C1191.51 84.9333 1190.84 84.5681 1190.49 84.4822C1184.6 82.4197 1183.04 76.49 1183 73.783Z" fill="black" stroke="black"/>
<path d="M1711 73.783C1711.16 63.9861 1717.67 61.5369 1720.9 61.5369C1729.08 61.7431 1731.04 69.7869 1731 73.783C1730.54 81.7107 1724.35 84.2244 1723.51 84.4822C1722.83 84.6884 1722.75 85.3845 1722.79 85.7068L1723.18 94.5369H1719.08L1719.4 85.7068C1719.51 84.9333 1718.84 84.5681 1718.49 84.4822C1712.6 82.4197 1711.04 76.49 1711 73.783Z" fill="black" stroke="black"/>
<path d="M729 73.783C729.156 63.9861 735.666 61.5369 738.902 61.5369C747.084 61.7431 749.043 69.7869 748.999 73.783C748.543 81.7107 742.355 84.2244 741.508 84.4822C740.83 84.6884 740.748 85.3845 740.791 85.7068L741.182 94.5369H737.078L737.404 85.7068C737.508 84.9333 736.839 84.5681 736.492 84.4822C730.603 82.4197 729.043 76.49 729 73.783Z" fill="black" stroke="black"/>
<path d="M1257 73.783C1257.16 63.9861 1263.67 61.5369 1266.9 61.5369C1275.08 61.7431 1277.04 69.7869 1277 73.783C1276.54 81.7107 1270.35 84.2244 1269.51 84.4822C1268.83 84.6884 1268.75 85.3845 1268.79 85.7068L1269.18 94.5369H1265.08L1265.4 85.7068C1265.51 84.9333 1264.84 84.5681 1264.49 84.4822C1258.6 82.4197 1257.04 76.49 1257 73.783Z" fill="black" stroke="black"/>
<path d="M1785 73.783C1785.16 63.9861 1791.67 61.5369 1794.9 61.5369C1803.08 61.7431 1805.04 69.7869 1805 73.783C1804.54 81.7107 1798.35 84.2244 1797.51 84.4822C1796.83 84.6884 1796.75 85.3845 1796.79 85.7068L1797.18 94.5369H1793.08L1793.4 85.7068C1793.51 84.9333 1792.84 84.5681 1792.49 84.4822C1786.6 82.4197 1785.04 76.49 1785 73.783Z" fill="black" stroke="black"/>
<path d="M767 71.8962C767.172 61.2087 774.333 58.5369 777.892 58.5369C786.892 58.7619 789.047 67.5369 788.999 71.8962C788.498 80.5447 781.69 83.2869 780.758 83.5681C780.013 83.7931 779.922 84.5525 779.97 84.9041L780.4 94.5369H775.886L776.244 84.9041C776.359 84.0603 775.623 83.6619 775.241 83.5681C768.763 81.3181 767.048 74.8494 767 71.8962Z" fill="black" stroke="black"/>
<path d="M1295 71.8962C1295.17 61.2087 1302.33 58.5369 1305.89 58.5369C1314.89 58.7619 1317.05 67.5369 1317 71.8962C1316.5 80.5447 1309.69 83.2869 1308.76 83.5681C1308.01 83.7931 1307.92 84.5525 1307.97 84.9041L1308.4 94.5369H1303.89L1304.24 84.9041C1304.36 84.0603 1303.62 83.6619 1303.24 83.5681C1296.76 81.3181 1295.05 74.8494 1295 71.8962Z" fill="black" stroke="black"/>
<path d="M1823 71.8962C1823.17 61.2087 1830.33 58.5369 1833.89 58.5369C1842.89 58.7619 1845.05 67.5369 1845 71.8962C1844.5 80.5447 1837.69 83.2869 1836.76 83.5681C1836.01 83.7931 1835.92 84.5525 1835.97 84.9041L1836.4 94.5369H1831.89L1832.24 84.9041C1832.36 84.0603 1831.62 83.6619 1831.24 83.5681C1824.76 81.3181 1823.05 74.8494 1823 71.8962Z" fill="black" stroke="black"/>
<path d="M877 71.8962C877.172 61.2087 884.333 58.5369 887.892 58.5369C896.892 58.7619 899.047 67.5369 898.999 71.8962C898.498 80.5447 891.69 83.2869 890.758 83.5681C890.013 83.7931 889.922 84.5525 889.97 84.9041L890.4 94.5369H885.886L886.244 84.9041C886.359 84.0603 885.623 83.6619 885.241 83.5681C878.763 81.3181 877.048 74.8494 877 71.8962Z" fill="black" stroke="black"/>
<path d="M1405 71.8962C1405.17 61.2087 1412.33 58.5369 1415.89 58.5369C1424.89 58.7619 1427.05 67.5369 1427 71.8962C1426.5 80.5447 1419.69 83.2869 1418.76 83.5681C1418.01 83.7931 1417.92 84.5525 1417.97 84.9041L1418.4 94.5369H1413.89L1414.24 84.9041C1414.36 84.0603 1413.62 83.6619 1413.24 83.5681C1406.76 81.3181 1405.05 74.8494 1405 71.8962Z" fill="black" stroke="black"/>
<path d="M986 73.1541C986.164 63.0603 993 60.5369 996.397 60.5369C1004.99 60.7494 1007.04 69.0369 1007 73.1541C1006.52 81.322 1000.02 83.9119 999.133 84.1775C998.422 84.39 998.335 85.1072 998.381 85.4392L998.791 94.5369H994.482L994.824 85.4392C994.933 84.6423 994.231 84.266 993.866 84.1775C987.683 82.0525 986.046 75.9431 986 73.1541Z" fill="black" stroke="black"/>
<path d="M1514 73.1541C1514.16 63.0603 1521 60.5369 1524.4 60.5369C1532.99 60.7494 1535.04 69.0369 1535 73.1541C1534.52 81.322 1528.02 83.9119 1527.13 84.1775C1526.42 84.39 1526.34 85.1072 1526.38 85.4392L1526.79 94.5369H1522.48L1522.82 85.4392C1522.93 84.6423 1522.23 84.266 1521.87 84.1775C1515.68 82.0525 1514.05 75.9431 1514 73.1541Z" fill="black" stroke="black"/>
<path d="M944 73.783C944.156 63.9861 950.666 61.5369 953.902 61.5369C962.084 61.7431 964.043 69.7869 963.999 73.783C963.543 81.7107 957.355 84.2244 956.508 84.4822C955.83 84.6884 955.748 85.3845 955.791 85.7068L956.182 94.5369H952.078L952.404 85.7068C952.508 84.9333 951.839 84.5681 951.492 84.4822C945.603 82.4197 944.043 76.49 944 73.783Z" fill="black" stroke="black"/>
<path d="M1472 73.783C1472.16 63.9861 1478.67 61.5369 1481.9 61.5369C1490.08 61.7431 1492.04 69.7869 1492 73.783C1491.54 81.7107 1485.35 84.2244 1484.51 84.4822C1483.83 84.6884 1483.75 85.3845 1483.79 85.7068L1484.18 94.5369H1480.08L1480.4 85.7068C1480.51 84.9333 1479.84 84.5681 1479.49 84.4822C1473.6 82.4197 1472.04 76.49 1472 73.783Z" fill="black" stroke="black"/>
<path d="M5 73.783C5.15635 63.9861 11.6664 61.5369 14.9019 61.5369C23.0841 61.7431 25.0427 69.7869 24.9993 73.783C24.5433 81.7107 18.3546 84.2244 17.5077 84.4822C16.8302 84.6884 16.7477 85.3845 16.7911 85.7068L17.182 94.5369H13.0779L13.4036 85.7068C13.5078 84.9333 12.839 84.5681 12.4916 84.4822C6.60255 82.4197 5.04343 76.49 5 73.783Z" fill="black" stroke="black"/>
<path d="M63 78.1853C63.1251 70.4666 68.3331 68.5369 70.9215 68.5369C77.4672 68.6994 79.0342 75.0369 78.9994 78.1853C78.6346 84.4314 73.6837 86.4119 73.0062 86.615C72.4642 86.7775 72.3982 87.3259 72.4329 87.5798L72.7456 94.5369H69.4623L69.7229 87.5798C69.8063 86.9705 69.2712 86.6827 68.9933 86.615C64.282 84.99 63.0347 80.3181 63 78.1853Z" fill="black" stroke="black"/>
<path d="M177 79.4431C177.117 72.3181 182 70.5369 184.426 70.5369C190.563 70.6869 192.032 76.5369 191.999 79.4431C191.657 85.2087 187.016 87.0369 186.381 87.2244C185.873 87.3744 185.811 87.8806 185.843 88.115L186.136 94.5369H183.058L183.303 88.115C183.381 87.5525 182.879 87.2869 182.619 87.2244C178.202 85.7244 177.033 81.4119 177 79.4431Z" fill="black" stroke="black"/>
<path d="M271 80.072C271.109 73.2439 275.667 71.5369 277.931 71.5369C283.659 71.6806 285.03 77.2869 285 80.072C284.68 85.5974 280.348 87.3494 279.755 87.5291C279.281 87.6728 279.223 88.158 279.254 88.3826L279.527 94.5369H276.655L276.883 88.3826C276.955 87.8435 276.487 87.5889 276.244 87.5291C272.122 86.0916 271.03 81.9587 271 80.072Z" fill="black" stroke="black"/>
<path d="M99 76.2986C99.1407 67.6892 105 65.5369 107.912 65.5369C115.276 65.7181 117.038 72.7869 116.999 76.2986C116.589 83.2654 111.019 85.4744 110.257 85.7009C109.647 85.8822 109.573 86.4939 109.612 86.7771L109.964 94.5369H106.27L106.563 86.7771C106.657 86.0974 106.055 85.7764 105.742 85.7009C100.442 83.8884 99.0391 78.6775 99 76.2986Z" fill="black" stroke="black"/>
<path d="M390 78.1853C390.125 70.4666 395.333 68.5369 397.922 68.5369C404.467 68.6994 406.034 75.0369 405.999 78.1853C405.635 84.4314 400.684 86.4119 400.006 86.615C399.464 86.7775 399.398 87.3259 399.433 87.5798L399.746 94.5369H396.462L396.723 87.5798C396.806 86.9705 396.271 86.6827 395.993 86.615C391.282 84.99 390.035 80.3181 390 78.1853Z" fill="black" stroke="black"/>
<path d="M25 81.3298C25.1016 75.0955 29.3332 73.5369 31.4363 73.5369C36.7546 73.6681 38.0278 78.7869 37.9995 81.3298C37.7031 86.3748 33.6805 87.9744 33.13 88.1384C32.6896 88.2697 32.636 88.7126 32.6642 88.9177L32.9183 94.5369H30.2506L30.4623 88.9177C30.5301 88.4255 30.0954 88.1931 29.8695 88.1384C26.0417 86.8259 25.0282 83.0525 25 81.3298Z" fill="black" stroke="black"/>
<path d="M167 80.072C167.109 73.2439 171.667 71.5369 173.931 71.5369C179.659 71.6806 181.03 77.2869 181 80.072C180.68 85.5974 176.348 87.3494 175.755 87.5291C175.281 87.6728 175.223 88.158 175.254 88.3826L175.527 94.5369H172.655L172.883 88.3826C172.955 87.8435 172.487 87.5889 172.244 87.5291C168.122 86.0916 167.03 81.9587 167 80.072Z" fill="black" stroke="black"/>
<path d="M304 77.5564C304.125 69.5408 309.333 67.5369 311.922 67.5369C318.467 67.7056 320.034 74.2869 319.999 77.5564C319.635 84.0427 314.684 86.0994 314.006 86.3103C313.464 86.4791 313.398 87.0486 313.433 87.3123L313.746 94.5369H310.462L310.723 87.3123C310.806 86.6794 310.271 86.3806 309.993 86.3103C305.282 84.6228 304.035 79.7712 304 77.5564Z" fill="black" stroke="black"/>
<path d="M322 81.3298C322.102 75.0955 326.333 73.5369 328.436 73.5369C333.755 73.6681 335.028 78.7869 335 81.3298C334.703 86.3748 330.68 87.9744 330.13 88.1384C329.69 88.2697 329.636 88.7126 329.664 88.9177L329.918 94.5369H327.251L327.462 88.9177C327.53 88.4255 327.095 88.1931 326.87 88.1384C323.042 86.8259 322.028 83.0525 322 81.3298Z" fill="black" stroke="black"/>
<path d="M501 81.3298C501.102 75.0955 505.333 73.5369 507.436 73.5369C512.755 73.6681 514.028 78.7869 514 81.3298C513.703 86.3748 509.68 87.9744 509.13 88.1384C508.69 88.2697 508.636 88.7126 508.664 88.9177L508.918 94.5369H506.251L506.462 88.9177C506.53 88.4255 506.095 88.1931 505.87 88.1384C502.042 86.8259 501.028 83.0525 501 81.3298Z" fill="black" stroke="black"/>
<path d="M485 78.1853C485.125 70.4666 490.333 68.5369 492.922 68.5369C499.467 68.6994 501.034 75.0369 500.999 78.1853C500.635 84.4314 495.684 86.4119 495.006 86.615C494.464 86.7775 494.398 87.3259 494.433 87.5798L494.746 94.5369H491.462L491.723 87.5798C491.806 86.9705 491.271 86.6827 490.993 86.615C486.282 84.99 485.035 80.3181 485 78.1853Z" fill="black" stroke="black"/>
<path d="M127 73.783C127.156 63.9861 133.666 61.5369 136.902 61.5369C145.084 61.7431 147.043 69.7869 146.999 73.783C146.543 81.7107 140.355 84.2244 139.508 84.4822C138.83 84.6884 138.748 85.3845 138.791 85.7068L139.182 94.5369H135.078L135.404 85.7068C135.508 84.9333 134.839 84.5681 134.492 84.4822C128.603 82.4197 127.043 76.49 127 73.783Z" fill="black" stroke="black"/>
<path d="M201 75.0408C201.149 65.8376 207.333 63.5369 210.407 63.5369C218.18 63.7306 220.041 71.2869 219.999 75.0408C219.566 82.488 213.687 84.8494 212.882 85.0916C212.239 85.2853 212.16 85.9392 212.202 86.2419L212.573 94.5369H208.674L208.983 86.2419C209.082 85.5154 208.447 85.1723 208.117 85.0916C202.522 83.1541 201.041 77.5837 201 75.0408Z" fill="black" stroke="black"/>
<path d="M239 75.6697C239.141 66.7634 245 64.5369 247.912 64.5369C255.276 64.7244 257.038 72.0369 256.999 75.6697C256.589 82.8767 251.019 85.1619 250.257 85.3962C249.647 85.5837 249.573 86.2166 249.612 86.5095L249.964 94.5369H246.27L246.563 86.5095C246.657 85.8064 246.055 85.4744 245.742 85.3962C240.442 83.5212 239.039 78.1306 239 75.6697Z" fill="black" stroke="black"/>
<path d="M349 71.8962C349.172 61.2087 356.333 58.5369 359.892 58.5369C368.892 58.7619 371.047 67.5369 370.999 71.8962C370.498 80.5447 363.69 83.2869 362.758 83.5681C362.013 83.7931 361.922 84.5525 361.97 84.9041L362.4 94.5369H357.886L358.244 84.9041C358.359 84.0603 357.623 83.6619 357.241 83.5681C350.763 81.3181 349.048 74.8494 349 71.8962Z" fill="black" stroke="black"/>
<path d="M458 73.1541C458.164 63.0603 465 60.5369 468.397 60.5369C476.988 60.7494 479.045 69.0369 478.999 73.1541C478.52 81.322 472.022 83.9119 471.133 84.1775C470.422 84.39 470.335 85.1072 470.381 85.4392L470.791 94.5369H466.482L466.824 85.4392C466.933 84.6423 466.231 84.266 465.866 84.1775C459.683 82.0525 458.046 75.9431 458 73.1541Z" fill="black" stroke="black"/>
<path d="M416 73.783C416.156 63.9861 422.666 61.5369 425.902 61.5369C434.084 61.7431 436.043 69.7869 435.999 73.783C435.543 81.7107 429.355 84.2244 428.508 84.4822C427.83 84.6884 427.748 85.3845 427.791 85.7068L428.182 94.5369H424.078L424.404 85.7068C424.508 84.9333 423.839 84.5681 423.492 84.4822C417.603 82.4197 416.043 76.49 416 73.783Z" fill="black" stroke="black"/>
</g>
<defs>
<filter id="filter0_d_215_288" x="0.5" y="0" width="1908" height="103.037" filterUnits="userSpaceOnUse" color-interpolation-filters="sRGB">
<feFlood flood-opacity="0" result="BackgroundImageFix"/>
<feColorMatrix in="SourceAlpha" type="matrix" values="0 0 0 0 0 0 0 0 0 0 0 0 0 0 0 0 0 0 127 0" result="hardAlpha"/>
<feOffset dy="4"/>
<feGaussianBlur stdDeviation="2"/>
<feComposite in2="hardAlpha" operator="out"/>
<feColorMatrix type="matrix" values="0 0 0 0 0 0 0 0 0 0 0 0 0 0 0 0 0 0 0.25 0"/>
<feBlend mode="normal" in2="BackgroundImageFix" result="effect1_dropShadow_215_288"/>
<feBlend mode="normal" in="SourceGraphic" in2="effect1_dropShadow_215_288" result="shape"/>
</filter>
<filter id="filter1_d_215_288" x="864.354" y="0" width="326.146" height="100.631" filterUnits="userSpaceOnUse" color-interpolation-filters="sRGB">
<feFlood flood-opacity="0" result="BackgroundImageFix"/>
<feColorMatrix in="SourceAlpha" type="matrix" values="0 0 0 0 0 0 0 0 0 0 0 0 0 0 0 0 0 0 127 0" result="hardAlpha"/>
<feOffset dy="4"/>
<feGaussianBlur stdDeviation="2"/>
<feComposite in2="hardAlpha" operator="out"/>
<feColorMatrix type="matrix" values="0 0 0 0 0 0 0 0 0 0 0 0 0 0 0 0 0 0 0.25 0"/>
<feBlend mode="normal" in2="BackgroundImageFix" result="effect1_dropShadow_215_288"/>
<feBlend mode="normal" in="SourceGraphic" in2="effect1_dropShadow_215_288" result="shape"/>
</filter>
<filter id="filter2_d_215_288" x="1639.14" y="4.31836" width="195.476" height="55.2449" filterUnits="userSpaceOnUse" color-interpolation-filters="sRGB">
<feFlood flood-opacity="0" result="BackgroundImageFix"/>
<feColorMatrix in="SourceAlpha" type="matrix" values="0 0 0 0 0 0 0 0 0 0 0 0 0 0 0 0 0 0 127 0" result="hardAlpha"/>
<feOffset dy="4"/>
<feGaussianBlur stdDeviation="2"/>
<feComposite in2="hardAlpha" operator="out"/>
<feColorMatrix type="matrix" values="0 0 0 0 0 0 0 0 0 0 0 0 0 0 0 0 0 0 0.25 0"/>
<feBlend mode="normal" in2="BackgroundImageFix" result="effect1_dropShadow_215_288"/>
<feBlend mode="normal" in="SourceGraphic" in2="effect1_dropShadow_215_288" result="shape"/>
</filter>
</defs>
</svg>
