<svg width="1901" height="101" viewBox="0 0 1901 101" fill="none" xmlns="http://www.w3.org/2000/svg">
<g filter="url(#filter0_d_215_288)">
<path d="M864.5 3.5369C895 -0.963127 958 -5.96321 993 50.5368C1017.5 22.5368 1092 14.0369 1122 90.0368C1142.5 43.5367 1173 36.5368 1182.5 36.5368" stroke="black" stroke-width="2" stroke-dasharray="7 7"/>
</g>
<path d="M1198 34.5369C1198 37.8506 1195.31 40.5369 1192 40.5369C1188.69 40.5369 1186 37.8506 1186 34.5369C1186 31.2232 1188.69 28.5369 1192 28.5369C1195.31 28.5369 1198 31.2232 1198 34.5369Z" fill="black"/>
<g filter="url(#filter1_d_215_288)">
<path d="M1640 41.037C1650 24.537 1702.5 18.5367 1715.5 49.5367C1748.5 4.03691 1797.5 3.03698 1826.5 6.537" stroke="black" stroke-width="2" stroke-dasharray="7 7"/>
</g>
<path d="M1639 49.5369C1639 52.8506 1636.31 55.5369 1633 55.5369C1629.69 55.5369 1627 52.8506 1627 49.5369C1627 46.2232 1629.69 43.5369 1633 43.5369C1636.31 43.5369 1639 46.2232 1639 49.5369Z" fill="black"/>
<path d="M529 73.783C529.156 63.9861 535.666 61.5369 538.902 61.5369C547.084 61.7431 549.043 69.7869 548.999 73.783C548.543 81.7107 542.355 84.2244 541.508 84.4822C540.83 84.6884 540.748 85.3845 540.791 85.7068L541.182 94.5369H537.078L537.404 85.7068C537.508 84.9333 536.839 84.5681 536.492 84.4822C530.603 82.4197 529.043 76.49 529 73.783Z" fill="black" stroke="black"/>
<path d="M1057 73.783C1057.16 63.9861 1063.67 61.5369 1066.9 61.5369C1075.08 61.7431 1077.04 69.7869 1077 73.783C1076.54 81.7107 1070.35 84.2244 1069.51 84.4822C1068.83 84.6884 1068.75 85.3845 1068.79 85.7068L1069.18 94.5369H1065.08L1065.4 85.7068C1065.51 84.9333 1064.84 84.5681 1064.49 84.4822C1058.6 82.4197 1057.04 76.49 1057 73.783Z" fill="black" stroke="black"/>
<path d="M1585 73.783C1585.16 63.9861 1591.67 61.5369 1594.9 61.5369C1603.08 61.7431 1605.04 69.7869 1605 73.783C1604.54 81.7107 1598.35 84.2244 1597.51 84.4822C1596.83 84.6884 1596.75 85.3845 1596.79 85.7068L1597.18 94.5369H1593.08L1593.4 85.7068C1593.51 84.9333 1592.84 84.5681 1592.49 84.4822C1586.6 82.4197 1585.04 76.49 1585 73.783Z" fill="black" stroke="black"/>
<path d="M587 78.1853C587.125 70.4666 592.333 68.5369 594.922 68.5369C601.467 68.6994 603.034 75.0369 602.999 78.1853C602.635 84.4314 597.684 86.4119 597.006 86.615C596.464 86.7775 596.398 87.3259 596.433 87.5798L596.746 94.5369H593.462L593.723 87.5798C593.806 86.9705 593.271 86.6827 592.993 86.615C588.282 84.99 587.035 80.3181 587 78.1853Z" fill="black" stroke="black"/>
<path d="M1643 78.1853C1643.13 70.4666 1648.33 68.5369 1650.92 68.5369C1657.47 68.6994 1659.03 75.0369 1659 78.1853C1658.63 84.4314 1653.68 86.4119 1653.01 86.615C1652.46 86.7775 1652.4 87.3259 1652.43 87.5798L1652.75 94.5369H1649.46L1649.72 87.5798C1649.81 86.9705 1649.27 86.6827 1648.99 86.615C1644.28 84.99 1643.03 80.3181 1643 78.1853Z" fill="black" stroke="black"/>
<path d="M701 79.4431C701.117 72.3181 706 70.5369 708.426 70.5369C714.563 70.6869 716.032 76.5369 715.999 79.4431C715.657 85.2087 711.016 87.0369 710.381 87.2244C709.873 87.3744 709.811 87.8806 709.843 88.115L710.136 94.5369H707.058L707.303 88.115C707.381 87.5525 706.879 87.2869 706.619 87.2244C702.202 85.7244 701.033 81.4119 701 79.4431Z" fill="black" stroke="black"/>
<path d="M1229 79.4431C1229.12 72.3181 1234 70.5369 1236.43 70.5369C1242.56 70.6869 1244.03 76.5369 1244 79.4431C1243.66 85.2087 1239.02 87.0369 1238.38 87.2244C1237.87 87.3744 1237.81 87.8806 1237.84 88.115L1238.14 94.5369H1235.06L1235.3 88.115C1235.38 87.5525 1234.88 87.2869 1234.62 87.2244C1230.2 85.7244 1229.03 81.4119 1229 79.4431Z" fill="black" stroke="black"/>
<path d="M1757 79.4431C1757.12 72.3181 1762 70.5369 1764.43 70.5369C1770.56 70.6869 1772.03 76.5369 1772 79.4431C1771.66 85.2087 1767.02 87.0369 1766.38 87.2244C1765.87 87.3744 1765.81 87.8806 1765.84 88.115L1766.14 94.5369H1763.06L1763.3 88.115C1763.38 87.5525 1762.88 87.2869 1762.62 87.2244C1758.2 85.7244 1757.03 81.4119 1757 79.4431Z" fill="black" stroke="black"/>
<path d="M795 80.072C795.109 73.2439 799.667 71.5369 801.931 71.5369C807.659 71.6806 809.03 77.2869 809 80.072C808.68 85.5974 804.348 87.3494 803.755 87.5291C803.281 87.6728 803.223 88.158 803.254 88.3826L803.527 94.5369H800.655L800.883 88.3826C800.955 87.8435 800.487 87.5889 800.244 87.5291C796.122 86.0916 795.03 81.9587 795 80.072Z" fill="black" stroke="black"/>
<path d="M1323 80.072C1323.11 73.2439 1327.67 71.5369 1329.93 71.5369C1335.66 71.6806 1337.03 77.2869 1337 80.072C1336.68 85.5974 1332.35 87.3494 1331.76 87.5291C1331.28 87.6728 1331.22 88.158 1331.25 88.3826L1331.53 94.5369H1328.65L1328.88 88.3826C1328.96 87.8435 1328.49 87.5889 1328.24 87.5291C1324.12 86.0916 1323.03 81.9587 1323 80.072Z" fill="black" stroke="black"/>
<path d="M1851 80.072C1851.11 73.2439 1855.67 71.5369 1857.93 71.5369C1863.66 71.6806 1865.03 77.2869 1865 80.072C1864.68 85.5974 1860.35 87.3494 1859.76 87.5291C1859.28 87.6728 1859.22 88.158 1859.25 88.3826L1859.53 94.5369H1856.65L1856.88 88.3826C1856.96 87.8435 1856.49 87.5889 1856.24 87.5291C1852.12 86.0916 1851.03 81.9587 1851 80.072Z" fill="black" stroke="black"/>
<path d="M623 76.2986C623.141 67.6892 629 65.5369 631.912 65.5369C639.276 65.7181 641.038 72.7869 640.999 76.2986C640.589 83.2654 635.019 85.4744 634.257 85.7009C633.647 85.8822 633.573 86.4939 633.612 86.7771L633.964 94.5369H630.27L630.563 86.7771C630.657 86.0974 630.055 85.7764 629.742 85.7009C624.442 83.8884 623.039 78.6775 623 76.2986Z" fill="black" stroke="black"/>
<path d="M1151 76.2986C1151.14 67.6892 1157 65.5369 1159.91 65.5369C1167.28 65.7181 1169.04 72.7869 1169 76.2986C1168.59 83.2654 1163.02 85.4744 1162.26 85.7009C1161.65 85.8822 1161.57 86.4939 1161.61 86.7771L1161.96 94.5369H1158.27L1158.56 86.7771C1158.66 86.0974 1158.06 85.7764 1157.74 85.7009C1152.44 83.8884 1151.04 78.6775 1151 76.2986Z" fill="black" stroke="black"/>
<path d="M1679 76.2986C1679.14 67.6892 1685 65.5369 1687.91 65.5369C1695.28 65.7181 1697.04 72.7869 1697 76.2986C1696.59 83.2654 1691.02 85.4744 1690.26 85.7009C1689.65 85.8822 1689.57 86.4939 1689.61 86.7771L1689.96 94.5369H1686.27L1686.56 86.7771C1686.66 86.0974 1686.06 85.7764 1685.74 85.7009C1680.44 83.8884 1679.04 78.6775 1679 76.2986Z" fill="black" stroke="black"/>
<path d="M914 78.1853C914.125 70.4666 919.333 68.5369 921.922 68.5369C928.467 68.6994 930.034 75.0369 929.999 78.1853C929.635 84.4314 924.684 86.4119 924.006 86.615C923.464 86.7775 923.398 87.3259 923.433 87.5798L923.746 94.5369H920.462L920.723 87.5798C920.806 86.9705 920.271 86.6827 919.993 86.615C915.282 84.99 914.035 80.3181 914 78.1853Z" fill="black" stroke="black"/>
<path d="M1442 78.1853C1442.13 70.4666 1447.33 68.5369 1449.92 68.5369C1456.47 68.6994 1458.03 75.0369 1458 78.1853C1457.63 84.4314 1452.68 86.4119 1452.01 86.615C1451.46 86.7775 1451.4 87.3259 1451.43 87.5798L1451.75 94.5369H1448.46L1448.72 87.5798C1448.81 86.9705 1448.27 86.6827 1447.99 86.615C1443.28 84.99 1442.03 80.3181 1442 78.1853Z" fill="black" stroke="black"/>
<path d="M549 81.3298C549.102 75.0955 553.333 73.5369 555.436 73.5369C560.755 73.6681 562.028 78.7869 562 81.3298C561.703 86.3748 557.68 87.9744 557.13 88.1384C556.69 88.2697 556.636 88.7126 556.664 88.9177L556.918 94.5369H554.251L554.462 88.9177C554.53 88.4255 554.095 88.1931 553.87 88.1384C550.042 86.8259 549.028 83.0525 549 81.3298Z" fill="black" stroke="black"/>
<path d="M1077 81.3298C1077.1 75.0955 1081.33 73.5369 1083.44 73.5369C1088.75 73.6681 1090.03 78.7869 1090 81.3298C1089.7 86.3748 1085.68 87.9744 1085.13 88.1384C1084.69 88.2697 1084.64 88.7126 1084.66 88.9177L1084.92 94.5369H1082.25L1082.46 88.9177C1082.53 88.4255 1082.1 88.1931 1081.87 88.1384C1078.04 86.8259 1077.03 83.0525 1077 81.3298Z" fill="black" stroke="black"/>
<path d="M1605 81.3298C1605.1 75.0955 1609.33 73.5369 1611.44 73.5369C1616.75 73.6681 1618.03 78.7869 1618 81.3298C1617.7 86.3748 1613.68 87.9744 1613.13 88.1384C1612.69 88.2697 1612.64 88.7126 1612.66 88.9177L1612.92 94.5369H1610.25L1610.46 88.9177C1610.53 88.4255 1610.1 88.1931 1609.87 88.1384C1606.04 86.8259 1605.03 83.0525 1605 81.3298Z" fill="black" stroke="black"/>
<path d="M691 80.072C691.109 73.2439 695.667 71.5369 697.931 71.5369C703.659 71.6806 705.03 77.2869 705 80.072C704.68 85.5974 700.348 87.3494 699.755 87.5291C699.281 87.6728 699.223 88.158 699.254 88.3826L699.527 94.5369H696.655L696.883 88.3826C696.955 87.8435 696.487 87.5889 696.244 87.5291C692.122 86.0916 691.03 81.9587 691 80.072Z" fill="black" stroke="black"/>
<path d="M1219 80.072C1219.11 73.2439 1223.67 71.5369 1225.93 71.5369C1231.66 71.6806 1233.03 77.2869 1233 80.072C1232.68 85.5974 1228.35 87.3494 1227.76 87.5291C1227.28 87.6728 1227.22 88.158 1227.25 88.3826L1227.53 94.5369H1224.65L1224.88 88.3826C1224.96 87.8435 1224.49 87.5889 1224.24 87.5291C1220.12 86.0916 1219.03 81.9587 1219 80.072Z" fill="black" stroke="black"/>
<path d="M828 77.5564C828.125 69.5408 833.333 67.5369 835.922 67.5369C842.467 67.7056 844.034 74.2869 843.999 77.5564C843.635 84.0427 838.684 86.0994 838.006 86.3103C837.464 86.4791 837.398 87.0486 837.433 87.3123L837.746 94.5369H834.462L834.723 87.3123C834.806 86.6794 834.271 86.3806 833.993 86.3103C829.282 84.6228 828.035 79.7712 828 77.5564Z" fill="black" stroke="black"/>
<path d="M1356 77.5564C1356.13 69.5408 1361.33 67.5369 1363.92 67.5369C1370.47 67.7056 1372.03 74.2869 1372 77.5564C1371.63 84.0427 1366.68 86.0994 1366.01 86.3103C1365.46 86.4791 1365.4 87.0486 1365.43 87.3123L1365.75 94.5369H1362.46L1362.72 87.3123C1362.81 86.6794 1362.27 86.3806 1361.99 86.3103C1357.28 84.6228 1356.03 79.7712 1356 77.5564Z" fill="black" stroke="black"/>
<path d="M1884 77.5564C1884.13 69.5408 1889.33 67.5369 1891.92 67.5369C1898.47 67.7056 1900.03 74.2869 1900 77.5564C1899.63 84.0427 1894.68 86.0994 1894.01 86.3103C1893.46 86.4791 1893.4 87.0486 1893.43 87.3123L1893.75 94.5369H1890.46L1890.72 87.3123C1890.81 86.6794 1890.27 86.3806 1889.99 86.3103C1885.28 84.6228 1884.03 79.7712 1884 77.5564Z" fill="black" stroke="black"/>
<path d="M846 81.3298C846.102 75.0955 850.333 73.5369 852.436 73.5369C857.755 73.6681 859.028 78.7869 859 81.3298C858.703 86.3748 854.68 87.9744 854.13 88.1384C853.69 88.2697 853.636 88.7126 853.664 88.9177L853.918 94.5369H851.251L851.462 88.9177C851.53 88.4255 851.095 88.1931 850.87 88.1384C847.042 86.8259 846.028 83.0525 846 81.3298Z" fill="black" stroke="black"/>
<path d="M1374 81.3298C1374.1 75.0955 1378.33 73.5369 1380.44 73.5369C1385.75 73.6681 1387.03 78.7869 1387 81.3298C1386.7 86.3748 1382.68 87.9744 1382.13 88.1384C1381.69 88.2697 1381.64 88.7126 1381.66 88.9177L1381.92 94.5369H1379.25L1379.46 88.9177C1379.53 88.4255 1379.1 88.1931 1378.87 88.1384C1375.04 86.8259 1374.03 83.0525 1374 81.3298Z" fill="black" stroke="black"/>
<path d="M1025 81.3298C1025.1 75.0955 1029.33 73.5369 1031.44 73.5369C1036.75 73.6681 1038.03 78.7869 1038 81.3298C1037.7 86.3748 1033.68 87.9744 1033.13 88.1384C1032.69 88.2697 1032.64 88.7126 1032.66 88.9177L1032.92 94.5369H1030.25L1030.46 88.9177C1030.53 88.4255 1030.1 88.1931 1029.87 88.1384C1026.04 86.8259 1025.03 83.0525 1025 81.3298Z" fill="black" stroke="black"/>
<path d="M1553 81.3298C1553.1 75.0955 1557.33 73.5369 1559.44 73.5369C1564.75 73.6681 1566.03 78.7869 1566 81.3298C1565.7 86.3748 1561.68 87.9744 1561.13 88.1384C1560.69 88.2697 1560.64 88.7126 1560.66 88.9177L1560.92 94.5369H1558.25L1558.46 88.9177C1558.53 88.4255 1558.1 88.1931 1557.87 88.1384C1554.04 86.8259 1553.03 83.0525 1553 81.3298Z" fill="black" stroke="black"/>
<path d="M1009 78.1853C1009.13 70.4666 1014.33 68.5369 1016.92 68.5369C1023.47 68.6994 1025.03 75.0369 1025 78.1853C1024.63 84.4314 1019.68 86.4119 1019.01 86.615C1018.46 86.7775 1018.4 87.3259 1018.43 87.5798L1018.75 94.5369H1015.46L1015.72 87.5798C1015.81 86.9705 1015.27 86.6827 1014.99 86.615C1010.28 84.99 1009.03 80.3181 1009 78.1853Z" fill="black" stroke="black"/>
<path d="M1537 78.1853C1537.13 70.4666 1542.33 68.5369 1544.92 68.5369C1551.47 68.6994 1553.03 75.0369 1553 78.1853C1552.63 84.4314 1547.68 86.4119 1547.01 86.615C1546.46 86.7775 1546.4 87.3259 1546.43 87.5798L1546.75 94.5369H1543.46L1543.72 87.5798C1543.81 86.9705 1543.27 86.6827 1542.99 86.615C1538.28 84.99 1537.03 80.3181 1537 78.1853Z" fill="black" stroke="black"/>
<path d="M651 73.783C651.156 63.9861 657.666 61.5369 660.902 61.5369C669.084 61.7431 671.043 69.7869 670.999 73.783C670.543 81.7107 664.355 84.2244 663.508 84.4822C662.83 84.6884 662.748 85.3845 662.791 85.7068L663.182 94.5369H659.078L659.404 85.7068C659.508 84.9333 658.839 84.5681 658.492 84.4822C652.603 82.4197 651.043 76.49 651 73.783Z" fill="black" stroke="black"/>
<path d="M1179 73.783C1179.16 63.9861 1185.67 61.5369 1188.9 61.5369C1197.08 61.7431 1199.04 69.7869 1199 73.783C1198.54 81.7107 1192.35 84.2244 1191.51 84.4822C1190.83 84.6884 1190.75 85.3845 1190.79 85.7068L1191.18 94.5369H1187.08L1187.4 85.7068C1187.51 84.9333 1186.84 84.5681 1186.49 84.4822C1180.6 82.4197 1179.04 76.49 1179 73.783Z" fill="black" stroke="black"/>
<path d="M1707 73.783C1707.16 63.9861 1713.67 61.5369 1716.9 61.5369C1725.08 61.7431 1727.04 69.7869 1727 73.783C1726.54 81.7107 1720.35 84.2244 1719.51 84.4822C1718.83 84.6884 1718.75 85.3845 1718.79 85.7068L1719.18 94.5369H1715.08L1715.4 85.7068C1715.51 84.9333 1714.84 84.5681 1714.49 84.4822C1708.6 82.4197 1707.04 76.49 1707 73.783Z" fill="black" stroke="black"/>
<path d="M725 73.783C725.156 63.9861 731.666 61.5369 734.902 61.5369C743.084 61.7431 745.043 69.7869 744.999 73.783C744.543 81.7107 738.355 84.2244 737.508 84.4822C736.83 84.6884 736.748 85.3845 736.791 85.7068L737.182 94.5369H733.078L733.404 85.7068C733.508 84.9333 732.839 84.5681 732.492 84.4822C726.603 82.4197 725.043 76.49 725 73.783Z" fill="black" stroke="black"/>
<path d="M1253 73.783C1253.16 63.9861 1259.67 61.5369 1262.9 61.5369C1271.08 61.7431 1273.04 69.7869 1273 73.783C1272.54 81.7107 1266.35 84.2244 1265.51 84.4822C1264.83 84.6884 1264.75 85.3845 1264.79 85.7068L1265.18 94.5369H1261.08L1261.4 85.7068C1261.51 84.9333 1260.84 84.5681 1260.49 84.4822C1254.6 82.4197 1253.04 76.49 1253 73.783Z" fill="black" stroke="black"/>
<path d="M1781 73.783C1781.16 63.9861 1787.67 61.5369 1790.9 61.5369C1799.08 61.7431 1801.04 69.7869 1801 73.783C1800.54 81.7107 1794.35 84.2244 1793.51 84.4822C1792.83 84.6884 1792.75 85.3845 1792.79 85.7068L1793.18 94.5369H1789.08L1789.4 85.7068C1789.51 84.9333 1788.84 84.5681 1788.49 84.4822C1782.6 82.4197 1781.04 76.49 1781 73.783Z" fill="black" stroke="black"/>
<path d="M763 71.8962C763.172 61.2087 770.333 58.5369 773.892 58.5369C782.892 58.7619 785.047 67.5369 784.999 71.8962C784.498 80.5447 777.69 83.2869 776.758 83.5681C776.013 83.7931 775.922 84.5525 775.97 84.9041L776.4 94.5369H771.886L772.244 84.9041C772.359 84.0603 771.623 83.6619 771.241 83.5681C764.763 81.3181 763.048 74.8494 763 71.8962Z" fill="black" stroke="black"/>
<path d="M1291 71.8962C1291.17 61.2087 1298.33 58.5369 1301.89 58.5369C1310.89 58.7619 1313.05 67.5369 1313 71.8962C1312.5 80.5447 1305.69 83.2869 1304.76 83.5681C1304.01 83.7931 1303.92 84.5525 1303.97 84.9041L1304.4 94.5369H1299.89L1300.24 84.9041C1300.36 84.0603 1299.62 83.6619 1299.24 83.5681C1292.76 81.3181 1291.05 74.8494 1291 71.8962Z" fill="black" stroke="black"/>
<path d="M1819 71.8962C1819.17 61.2087 1826.33 58.5369 1829.89 58.5369C1838.89 58.7619 1841.05 67.5369 1841 71.8962C1840.5 80.5447 1833.69 83.2869 1832.76 83.5681C1832.01 83.7931 1831.92 84.5525 1831.97 84.9041L1832.4 94.5369H1827.89L1828.24 84.9041C1828.36 84.0603 1827.62 83.6619 1827.24 83.5681C1820.76 81.3181 1819.05 74.8494 1819 71.8962Z" fill="black" stroke="black"/>
<path d="M873 71.8962C873.172 61.2087 880.333 58.5369 883.892 58.5369C892.892 58.7619 895.047 67.5369 894.999 71.8962C894.498 80.5447 887.69 83.2869 886.758 83.5681C886.013 83.7931 885.922 84.5525 885.97 84.9041L886.4 94.5369H881.886L882.244 84.9041C882.359 84.0603 881.623 83.6619 881.241 83.5681C874.763 81.3181 873.048 74.8494 873 71.8962Z" fill="black" stroke="black"/>
<path d="M1401 71.8962C1401.17 61.2087 1408.33 58.5369 1411.89 58.5369C1420.89 58.7619 1423.05 67.5369 1423 71.8962C1422.5 80.5447 1415.69 83.2869 1414.76 83.5681C1414.01 83.7931 1413.92 84.5525 1413.97 84.9041L1414.4 94.5369H1409.89L1410.24 84.9041C1410.36 84.0603 1409.62 83.6619 1409.24 83.5681C1402.76 81.3181 1401.05 74.8494 1401 71.8962Z" fill="black" stroke="black"/>
<path d="M982 73.1541C982.164 63.0603 989 60.5369 992.397 60.5369C1000.99 60.7494 1003.04 69.0369 1003 73.1541C1002.52 81.322 996.022 83.9119 995.133 84.1775C994.422 84.39 994.335 85.1072 994.381 85.4392L994.791 94.5369H990.482L990.824 85.4392C990.933 84.6423 990.231 84.266 989.866 84.1775C983.683 82.0525 982.046 75.9431 982 73.1541Z" fill="black" stroke="black"/>
<path d="M1510 73.1541C1510.16 63.0603 1517 60.5369 1520.4 60.5369C1528.99 60.7494 1531.04 69.0369 1531 73.1541C1530.52 81.322 1524.02 83.9119 1523.13 84.1775C1522.42 84.39 1522.34 85.1072 1522.38 85.4392L1522.79 94.5369H1518.48L1518.82 85.4392C1518.93 84.6423 1518.23 84.266 1517.87 84.1775C1511.68 82.0525 1510.05 75.9431 1510 73.1541Z" fill="black" stroke="black"/>
<path d="M940 73.783C940.156 63.9861 946.666 61.5369 949.902 61.5369C958.084 61.7431 960.043 69.7869 959.999 73.783C959.543 81.7107 953.355 84.2244 952.508 84.4822C951.83 84.6884 951.748 85.3845 951.791 85.7068L952.182 94.5369H948.078L948.404 85.7068C948.508 84.9333 947.839 84.5681 947.492 84.4822C941.603 82.4197 940.043 76.49 940 73.783Z" fill="black" stroke="black"/>
<path d="M1468 73.783C1468.16 63.9861 1474.67 61.5369 1477.9 61.5369C1486.08 61.7431 1488.04 69.7869 1488 73.783C1487.54 81.7107 1481.35 84.2244 1480.51 84.4822C1479.83 84.6884 1479.75 85.3845 1479.79 85.7068L1480.18 94.5369H1476.08L1476.4 85.7068C1476.51 84.9333 1475.84 84.5681 1475.49 84.4822C1469.6 82.4197 1468.04 76.49 1468 73.783Z" fill="black" stroke="black"/>
<path d="M1 73.783C1.15635 63.9861 7.66643 61.5369 10.9019 61.5369C19.0841 61.7431 21.0427 69.7869 20.9993 73.783C20.5433 81.7107 14.3546 84.2244 13.5077 84.4822C12.8302 84.6884 12.7477 85.3845 12.7911 85.7068L13.182 94.5369H9.07789L9.40361 85.7068C9.50784 84.9333 8.83903 84.5681 8.49159 84.4822C2.60255 82.4197 1.04343 76.49 1 73.783Z" fill="black" stroke="black"/>
<path d="M59 78.1853C59.1251 70.4666 64.3331 68.5369 66.9215 68.5369C73.4672 68.6994 75.0342 75.0369 74.9994 78.1853C74.6346 84.4314 69.6837 86.4119 69.0062 86.615C68.4642 86.7775 68.3982 87.3259 68.4329 87.5798L68.7456 94.5369H65.4623L65.7229 87.5798C65.8063 86.9705 65.2712 86.6827 64.9933 86.615C60.282 84.99 59.0347 80.3181 59 78.1853Z" fill="black" stroke="black"/>
<path d="M173 79.4431C173.117 72.3181 178 70.5369 180.426 70.5369C186.563 70.6869 188.032 76.5369 187.999 79.4431C187.657 85.2087 183.016 87.0369 182.381 87.2244C181.873 87.3744 181.811 87.8806 181.843 88.115L182.136 94.5369H179.058L179.303 88.115C179.381 87.5525 178.879 87.2869 178.619 87.2244C174.202 85.7244 173.033 81.4119 173 79.4431Z" fill="black" stroke="black"/>
<path d="M267 80.072C267.109 73.2439 271.667 71.5369 273.931 71.5369C279.659 71.6806 281.03 77.2869 281 80.072C280.68 85.5974 276.348 87.3494 275.755 87.5291C275.281 87.6728 275.223 88.158 275.254 88.3826L275.527 94.5369H272.655L272.883 88.3826C272.955 87.8435 272.487 87.5889 272.244 87.5291C268.122 86.0916 267.03 81.9587 267 80.072Z" fill="black" stroke="black"/>
<path d="M95 76.2986C95.1407 67.6892 101 65.5369 103.912 65.5369C111.276 65.7181 113.038 72.7869 112.999 76.2986C112.589 83.2654 107.019 85.4744 106.257 85.7009C105.647 85.8822 105.573 86.4939 105.612 86.7771L105.964 94.5369H102.27L102.563 86.7771C102.657 86.0974 102.055 85.7764 101.742 85.7009C96.4423 83.8884 95.0391 78.6775 95 76.2986Z" fill="black" stroke="black"/>
<path d="M386 78.1853C386.125 70.4666 391.333 68.5369 393.922 68.5369C400.467 68.6994 402.034 75.0369 401.999 78.1853C401.635 84.4314 396.684 86.4119 396.006 86.615C395.464 86.7775 395.398 87.3259 395.433 87.5798L395.746 94.5369H392.462L392.723 87.5798C392.806 86.9705 392.271 86.6827 391.993 86.615C387.282 84.99 386.035 80.3181 386 78.1853Z" fill="black" stroke="black"/>
<path d="M21 81.3298C21.1016 75.0955 25.3332 73.5369 27.4363 73.5369C32.7546 73.6681 34.0278 78.7869 33.9995 81.3298C33.7031 86.3748 29.6805 87.9744 29.13 88.1384C28.6896 88.2697 28.636 88.7126 28.6642 88.9177L28.9183 94.5369H26.2506L26.4623 88.9177C26.5301 88.4255 26.0954 88.1931 25.8695 88.1384C22.0417 86.8259 21.0282 83.0525 21 81.3298Z" fill="black" stroke="black"/>
<path d="M163 80.072C163.109 73.2439 167.667 71.5369 169.931 71.5369C175.659 71.6806 177.03 77.2869 177 80.072C176.68 85.5974 172.348 87.3494 171.755 87.5291C171.281 87.6728 171.223 88.158 171.254 88.3826L171.527 94.5369H168.655L168.883 88.3826C168.955 87.8435 168.487 87.5889 168.244 87.5291C164.122 86.0916 163.03 81.9587 163 80.072Z" fill="black" stroke="black"/>
<path d="M300 77.5564C300.125 69.5408 305.333 67.5369 307.922 67.5369C314.467 67.7056 316.034 74.2869 315.999 77.5564C315.635 84.0427 310.684 86.0994 310.006 86.3103C309.464 86.4791 309.398 87.0486 309.433 87.3123L309.746 94.5369H306.462L306.723 87.3123C306.806 86.6794 306.271 86.3806 305.993 86.3103C301.282 84.6228 300.035 79.7712 300 77.5564Z" fill="black" stroke="black"/>
<path d="M318 81.3298C318.102 75.0955 322.333 73.5369 324.436 73.5369C329.755 73.6681 331.028 78.7869 331 81.3298C330.703 86.3748 326.68 87.9744 326.13 88.1384C325.69 88.2697 325.636 88.7126 325.664 88.9177L325.918 94.5369H323.251L323.462 88.9177C323.53 88.4255 323.095 88.1931 322.87 88.1384C319.042 86.8259 318.028 83.0525 318 81.3298Z" fill="black" stroke="black"/>
<path d="M497 81.3298C497.102 75.0955 501.333 73.5369 503.436 73.5369C508.755 73.6681 510.028 78.7869 510 81.3298C509.703 86.3748 505.68 87.9744 505.13 88.1384C504.69 88.2697 504.636 88.7126 504.664 88.9177L504.918 94.5369H502.251L502.462 88.9177C502.53 88.4255 502.095 88.1931 501.87 88.1384C498.042 86.8259 497.028 83.0525 497 81.3298Z" fill="black" stroke="black"/>
<path d="M481 78.1853C481.125 70.4666 486.333 68.5369 488.922 68.5369C495.467 68.6994 497.034 75.0369 496.999 78.1853C496.635 84.4314 491.684 86.4119 491.006 86.615C490.464 86.7775 490.398 87.3259 490.433 87.5798L490.746 94.5369H487.462L487.723 87.5798C487.806 86.9705 487.271 86.6827 486.993 86.615C482.282 84.99 481.035 80.3181 481 78.1853Z" fill="black" stroke="black"/>
<path d="M123 73.783C123.156 63.9861 129.666 61.5369 132.902 61.5369C141.084 61.7431 143.043 69.7869 142.999 73.783C142.543 81.7107 136.355 84.2244 135.508 84.4822C134.83 84.6884 134.748 85.3845 134.791 85.7068L135.182 94.5369H131.078L131.404 85.7068C131.508 84.9333 130.839 84.5681 130.492 84.4822C124.603 82.4197 123.043 76.49 123 73.783Z" fill="black" stroke="black"/>
<path d="M197 75.0408C197.149 65.8376 203.333 63.5369 206.407 63.5369C214.18 63.7306 216.041 71.2869 215.999 75.0408C215.566 82.488 209.687 84.8494 208.882 85.0916C208.239 85.2853 208.16 85.9392 208.202 86.2419L208.573 94.5369H204.674L204.983 86.2419C205.082 85.5154 204.447 85.1723 204.117 85.0916C198.522 83.1541 197.041 77.5837 197 75.0408Z" fill="black" stroke="black"/>
<path d="M235 75.6697C235.141 66.7634 241 64.5369 243.912 64.5369C251.276 64.7244 253.038 72.0369 252.999 75.6697C252.589 82.8767 247.019 85.1619 246.257 85.3962C245.647 85.5837 245.573 86.2166 245.612 86.5095L245.964 94.5369H242.27L242.563 86.5095C242.657 85.8064 242.055 85.4744 241.742 85.3962C236.442 83.5212 235.039 78.1306 235 75.6697Z" fill="black" stroke="black"/>
<path d="M345 71.8962C345.172 61.2087 352.333 58.5369 355.892 58.5369C364.892 58.7619 367.047 67.5369 366.999 71.8962C366.498 80.5447 359.69 83.2869 358.758 83.5681C358.013 83.7931 357.922 84.5525 357.97 84.9041L358.4 94.5369H353.886L354.244 84.9041C354.359 84.0603 353.623 83.6619 353.241 83.5681C346.763 81.3181 345.048 74.8494 345 71.8962Z" fill="black" stroke="black"/>
<path d="M454 73.1541C454.164 63.0603 461 60.5369 464.397 60.5369C472.988 60.7494 475.045 69.0369 474.999 73.1541C474.52 81.322 468.022 83.9119 467.133 84.1775C466.422 84.39 466.335 85.1072 466.381 85.4392L466.791 94.5369H462.482L462.824 85.4392C462.933 84.6423 462.231 84.266 461.866 84.1775C455.683 82.0525 454.046 75.9431 454 73.1541Z" fill="black" stroke="black"/>
<path d="M412 73.783C412.156 63.9861 418.666 61.5369 421.902 61.5369C430.084 61.7431 432.043 69.7869 431.999 73.783C431.543 81.7107 425.355 84.2244 424.508 84.4822C423.83 84.6884 423.748 85.3845 423.791 85.7068L424.182 94.5369H420.078L420.404 85.7068C420.508 84.9333 419.839 84.5681 419.492 84.4822C413.603 82.4197 412.043 76.49 412 73.783Z" fill="black" stroke="black"/>
<defs>
<filter id="filter0_d_215_288" x="860.354" y="0" width="326.146" height="100.631" filterUnits="userSpaceOnUse" color-interpolation-filters="sRGB">
<feFlood flood-opacity="0" result="BackgroundImageFix"/>
<feColorMatrix in="SourceAlpha" type="matrix" values="0 0 0 0 0 0 0 0 0 0 0 0 0 0 0 0 0 0 127 0" result="hardAlpha"/>
<feOffset dy="4"/>
<feGaussianBlur stdDeviation="2"/>
<feComposite in2="hardAlpha" operator="out"/>
<feColorMatrix type="matrix" values="0 0 0 0 0 0 0 0 0 0 0 0 0 0 0 0 0 0 0.25 0"/>
<feBlend mode="normal" in2="BackgroundImageFix" result="effect1_dropShadow_215_288"/>
<feBlend mode="normal" in="SourceGraphic" in2="effect1_dropShadow_215_288" result="shape"/>
</filter>
<filter id="filter1_d_215_288" x="1635.14" y="4.31836" width="195.476" height="55.2449" filterUnits="userSpaceOnUse" color-interpolation-filters="sRGB">
<feFlood flood-opacity="0" result="BackgroundImageFix"/>
<feColorMatrix in="SourceAlpha" type="matrix" values="0 0 0 0 0 0 0 0 0 0 0 0 0 0 0 0 0 0 127 0" result="hardAlpha"/>
<feOffset dy="4"/>
<feGaussianBlur stdDeviation="2"/>
<feComposite in2="hardAlpha" operator="out"/>
<feColorMatrix type="matrix" values="0 0 0 0 0 0 0 0 0 0 0 0 0 0 0 0 0 0 0.25 0"/>
<feBlend mode="normal" in2="BackgroundImageFix" result="effect1_dropShadow_215_288"/>
<feBlend mode="normal" in="SourceGraphic" in2="effect1_dropShadow_215_288" result="shape"/>
</filter>
</defs>
</svg>
