<svg width="1920" height="38" viewBox="0 0 1920 38" fill="none" xmlns="http://www.w3.org/2000/svg">
<ellipse cx="12" cy="15.5" rx="12" ry="11.5" fill="#020202"/>
<rect x="10" y="25" width="4" height="12" fill="#020202"/>
<ellipse cx="249" cy="12.8939" rx="14" ry="12.8939" fill="#020202"/>
<rect x="246.667" y="23.5454" width="4.66667" height="13.4545" fill="#020202"/>
<ellipse cx="466" cy="12.8939" rx="14" ry="12.8939" fill="#020202"/>
<rect x="463.667" y="23.5454" width="4.66667" height="13.4545" fill="#020202"/>
<ellipse cx="104.5" cy="18.1061" rx="10.5" ry="10.1061" fill="#020202"/>
<rect x="102.75" y="26.4546" width="3.5" height="10.5455" fill="#020202"/>
<ellipse cx="422.5" cy="18.1061" rx="10.5" ry="10.1061" fill="#020202"/>
<rect x="420.75" y="26.4546" width="3.5" height="10.5455" fill="#020202"/>
<ellipse cx="26.5" cy="23.6667" rx="7.5" ry="7.66667" fill="#020202"/>
<rect x="25.25" y="30" width="2.5" height="8" fill="#020202"/>
<ellipse cx="171.5" cy="23.6667" rx="7.5" ry="7.66667" fill="#020202"/>
<rect x="170.25" y="30" width="2.5" height="8" fill="#020202"/>
<ellipse cx="275.5" cy="23.6667" rx="7.5" ry="7.66667" fill="#020202"/>
<rect x="274.25" y="30" width="2.5" height="8" fill="#020202"/>
<ellipse cx="325.5" cy="23.6667" rx="7.5" ry="7.66667" fill="#020202"/>
<rect x="324.25" y="30" width="2.5" height="8" fill="#020202"/>
<ellipse cx="393.5" cy="23.6667" rx="7.5" ry="7.66667" fill="#020202"/>
<rect x="392.25" y="30" width="2.5" height="8" fill="#020202"/>
<ellipse cx="506.5" cy="22.6667" rx="7.5" ry="7.66667" fill="#020202"/>
<rect x="505.25" y="29" width="2.5" height="8" fill="#020202"/>
<ellipse cx="492.5" cy="21.3636" rx="8.5" ry="8.36364" fill="#020202"/>
<rect x="491.083" y="28.2727" width="2.83333" height="8.72727" fill="#020202"/>
<ellipse cx="309.5" cy="21.3636" rx="8.5" ry="8.36364" fill="#020202"/>
<rect x="308.083" y="28.2727" width="2.83333" height="8.72727" fill="#020202"/>
<ellipse cx="181.5" cy="21.3636" rx="8.5" ry="8.36364" fill="#020202"/>
<rect x="180.083" y="28.2727" width="2.83333" height="8.72727" fill="#020202"/>
<ellipse cx="68.5" cy="21.3636" rx="8.5" ry="8.36364" fill="#020202"/>
<rect x="67.083" y="28.2727" width="2.83333" height="8.72727" fill="#020202"/>
<ellipse cx="134" cy="15.5" rx="12" ry="11.5" fill="#020202"/>
<rect x="132" y="25" width="4" height="12" fill="#020202"/>
<ellipse cx="209" cy="15.5" rx="12" ry="11.5" fill="#020202"/>
<rect x="207" y="25" width="4" height="12" fill="#020202"/>
<ellipse cx="358" cy="15.5" rx="12" ry="11.5" fill="#020202"/>
<rect x="356" y="25" width="4" height="12" fill="#020202"/>
<ellipse cx="532" cy="15.5" rx="12" ry="11.5" fill="#020202"/>
<rect x="530" y="25" width="4" height="12" fill="#020202"/>
<ellipse cx="769" cy="12.8939" rx="14" ry="12.8939" fill="#020202"/>
<rect x="766.667" y="23.5454" width="4.66667" height="13.4545" fill="#020202"/>
<ellipse cx="986" cy="12.8939" rx="14" ry="12.8939" fill="#020202"/>
<rect x="983.667" y="23.5454" width="4.66667" height="13.4545" fill="#020202"/>
<ellipse cx="624.5" cy="18.1061" rx="10.5" ry="10.1061" fill="#020202"/>
<rect x="622.75" y="26.4546" width="3.5" height="10.5455" fill="#020202"/>
<ellipse cx="942.5" cy="18.1061" rx="10.5" ry="10.1061" fill="#020202"/>
<rect x="940.75" y="26.4546" width="3.5" height="10.5455" fill="#020202"/>
<ellipse cx="546.5" cy="23.6667" rx="7.5" ry="7.66667" fill="#020202"/>
<rect x="545.25" y="30" width="2.5" height="8" fill="#020202"/>
<ellipse cx="691.5" cy="23.6667" rx="7.5" ry="7.66667" fill="#020202"/>
<rect x="690.25" y="30" width="2.5" height="8" fill="#020202"/>
<ellipse cx="795.5" cy="23.6667" rx="7.5" ry="7.66667" fill="#020202"/>
<rect x="794.25" y="30" width="2.5" height="8" fill="#020202"/>
<ellipse cx="845.5" cy="23.6667" rx="7.5" ry="7.66667" fill="#020202"/>
<rect x="844.25" y="30" width="2.5" height="8" fill="#020202"/>
<ellipse cx="913.5" cy="23.6667" rx="7.5" ry="7.66667" fill="#020202"/>
<rect x="912.25" y="30" width="2.5" height="8" fill="#020202"/>
<ellipse cx="1026.5" cy="22.6667" rx="7.5" ry="7.66667" fill="#020202"/>
<rect x="1025.25" y="29" width="2.5" height="8" fill="#020202"/>
<ellipse cx="1012.5" cy="21.3636" rx="8.5" ry="8.36364" fill="#020202"/>
<rect x="1011.08" y="28.2727" width="2.83333" height="8.72727" fill="#020202"/>
<ellipse cx="829.5" cy="21.3636" rx="8.5" ry="8.36364" fill="#020202"/>
<rect x="828.083" y="28.2727" width="2.83333" height="8.72727" fill="#020202"/>
<ellipse cx="701.5" cy="21.3636" rx="8.5" ry="8.36364" fill="#020202"/>
<rect x="700.083" y="28.2727" width="2.83333" height="8.72727" fill="#020202"/>
<ellipse cx="588.5" cy="21.3636" rx="8.5" ry="8.36364" fill="#020202"/>
<rect x="587.083" y="28.2727" width="2.83333" height="8.72727" fill="#020202"/>
<ellipse cx="654" cy="15.5" rx="12" ry="11.5" fill="#020202"/>
<rect x="652" y="25" width="4" height="12" fill="#020202"/>
<ellipse cx="729" cy="15.5" rx="12" ry="11.5" fill="#020202"/>
<rect x="727" y="25" width="4" height="12" fill="#020202"/>
<ellipse cx="878" cy="15.5" rx="12" ry="11.5" fill="#020202"/>
<rect x="876" y="25" width="4" height="12" fill="#020202"/>
<ellipse cx="1052" cy="15.5" rx="12" ry="11.5" fill="#020202"/>
<rect x="1050" y="25" width="4" height="12" fill="#020202"/>
<ellipse cx="1289" cy="12.8939" rx="14" ry="12.8939" fill="#020202"/>
<rect x="1286.67" y="23.5454" width="4.66667" height="13.4545" fill="#020202"/>
<ellipse cx="1506" cy="12.8939" rx="14" ry="12.8939" fill="#020202"/>
<rect x="1503.67" y="23.5454" width="4.66667" height="13.4545" fill="#020202"/>
<ellipse cx="1144.5" cy="18.1061" rx="10.5" ry="10.1061" fill="#020202"/>
<rect x="1142.75" y="26.4546" width="3.5" height="10.5455" fill="#020202"/>
<ellipse cx="1462.5" cy="18.1061" rx="10.5" ry="10.1061" fill="#020202"/>
<rect x="1460.75" y="26.4546" width="3.5" height="10.5455" fill="#020202"/>
<ellipse cx="1066.5" cy="23.6667" rx="7.5" ry="7.66667" fill="#020202"/>
<rect x="1065.25" y="30" width="2.5" height="8" fill="#020202"/>
<ellipse cx="1211.5" cy="23.6667" rx="7.5" ry="7.66667" fill="#020202"/>
<rect x="1210.25" y="30" width="2.5" height="8" fill="#020202"/>
<ellipse cx="1315.5" cy="23.6667" rx="7.5" ry="7.66667" fill="#020202"/>
<rect x="1314.25" y="30" width="2.5" height="8" fill="#020202"/>
<ellipse cx="1365.5" cy="23.6667" rx="7.5" ry="7.66667" fill="#020202"/>
<rect x="1364.25" y="30" width="2.5" height="8" fill="#020202"/>
<ellipse cx="1433.5" cy="23.6667" rx="7.5" ry="7.66667" fill="#020202"/>
<rect x="1432.25" y="30" width="2.5" height="8" fill="#020202"/>
<ellipse cx="1546.5" cy="22.6667" rx="7.5" ry="7.66667" fill="#020202"/>
<rect x="1545.25" y="29" width="2.5" height="8" fill="#020202"/>
<ellipse cx="1532.5" cy="21.3636" rx="8.5" ry="8.36364" fill="#020202"/>
<rect x="1531.08" y="28.2727" width="2.83333" height="8.72727" fill="#020202"/>
<ellipse cx="1349.5" cy="21.3636" rx="8.5" ry="8.36364" fill="#020202"/>
<rect x="1348.08" y="28.2727" width="2.83333" height="8.72727" fill="#020202"/>
<ellipse cx="1221.5" cy="21.3636" rx="8.5" ry="8.36364" fill="#020202"/>
<rect x="1220.08" y="28.2727" width="2.83333" height="8.72727" fill="#020202"/>
<ellipse cx="1108.5" cy="21.3636" rx="8.5" ry="8.36364" fill="#020202"/>
<rect x="1107.08" y="28.2727" width="2.83333" height="8.72727" fill="#020202"/>
<ellipse cx="1174" cy="15.5" rx="12" ry="11.5" fill="#020202"/>
<rect x="1172" y="25" width="4" height="12" fill="#020202"/>
<ellipse cx="1249" cy="15.5" rx="12" ry="11.5" fill="#020202"/>
<rect x="1247" y="25" width="4" height="12" fill="#020202"/>
<ellipse cx="1398" cy="15.5" rx="12" ry="11.5" fill="#020202"/>
<rect x="1396" y="25" width="4" height="12" fill="#020202"/>
<ellipse cx="1572" cy="15.5" rx="12" ry="11.5" fill="#020202"/>
<rect x="1570" y="25" width="4" height="12" fill="#020202"/>
<ellipse cx="1809" cy="12.8939" rx="14" ry="12.8939" fill="#020202"/>
<rect x="1806.67" y="23.5454" width="4.66667" height="13.4545" fill="#020202"/>
<ellipse cx="1664.5" cy="18.1061" rx="10.5" ry="10.1061" fill="#020202"/>
<rect x="1662.75" y="26.4546" width="3.5" height="10.5455" fill="#020202"/>
<ellipse cx="1586.5" cy="23.6667" rx="7.5" ry="7.66667" fill="#020202"/>
<rect x="1585.25" y="30" width="2.5" height="8" fill="#020202"/>
<ellipse cx="1731.5" cy="23.6667" rx="7.5" ry="7.66667" fill="#020202"/>
<rect x="1730.25" y="30" width="2.5" height="8" fill="#020202"/>
<ellipse cx="1835.5" cy="23.6667" rx="7.5" ry="7.66667" fill="#020202"/>
<rect x="1834.25" y="30" width="2.5" height="8" fill="#020202"/>
<ellipse cx="1885.5" cy="23.6667" rx="7.5" ry="7.66667" fill="#020202"/>
<rect x="1884.25" y="30" width="2.5" height="8" fill="#020202"/>
<ellipse cx="1910" cy="18.1061" rx="10" ry="10.1061" fill="#020202"/>
<rect x="1908.33" y="26.4546" width="3.33333" height="10.5455" fill="#020202"/>
<ellipse cx="1869.5" cy="21.3636" rx="8.5" ry="8.36364" fill="#020202"/>
<rect x="1868.08" y="28.2727" width="2.83333" height="8.72727" fill="#020202"/>
<ellipse cx="1741.5" cy="21.3636" rx="8.5" ry="8.36364" fill="#020202"/>
<rect x="1740.08" y="28.2727" width="2.83333" height="8.72727" fill="#020202"/>
<ellipse cx="1628.5" cy="21.3636" rx="8.5" ry="8.36364" fill="#020202"/>
<rect x="1627.08" y="28.2727" width="2.83333" height="8.72727" fill="#020202"/>
<ellipse cx="1694" cy="15.5" rx="12" ry="11.5" fill="#020202"/>
<rect x="1692" y="25" width="4" height="12" fill="#020202"/>
<ellipse cx="1769" cy="15.5" rx="12" ry="11.5" fill="#020202"/>
<rect x="1767" y="25" width="4" height="12" fill="#020202"/>
</svg>
