<svg width="2116" height="54" viewBox="0 0 2116 54" fill="none" xmlns="http://www.w3.org/2000/svg">
<path d="M394 13.0433L395.796 36.2608H392.204L394 13.0433Z" fill="black"/>
<path d="M401 20.2729C401 24.8419 397.723 28.5458 394 28.5458C390.277 28.5458 387 24.8419 387 20.2729C387 15.7039 390.277 12 394 12C397.723 12 401 15.7039 401 20.2729Z" fill="black"/>
<path d="M273 14.0433L274.796 37.2608H271.204L273 14.0433Z" fill="black"/>
<path d="M280 21.2729C280 25.8419 276.723 29.5458 273 29.5458C269.277 29.5458 266 25.8419 266 21.2729C266 16.7039 269.277 13 273 13C276.723 13 280 16.7039 280 21.2729Z" fill="black"/>
<path d="M103.5 8.40198L105.938 39.6005H101.063L103.5 8.40198Z" fill="black"/>
<path d="M113 18.1167C113 24.2563 108.552 29.2334 103.5 29.2334C98.4476 29.2334 94 24.2563 94 18.1167C94 11.9771 98.4476 7 103.5 7C108.552 7 113 11.9771 113 18.1167Z" fill="black"/>
<path d="M246.5 8.46729L248.938 41.1169H244.063L246.5 8.46729Z" fill="black"/>
<path d="M256 18.6338C256 25.0589 251.552 30.2675 246.5 30.2675C241.448 30.2675 237 25.0589 237 18.6338C237 12.2086 241.448 7 246.5 7C251.552 7 256 12.2086 256 18.6338Z" fill="black"/>
<path d="M356.5 1.69543L359.451 39.4238H353.549L356.5 1.69543Z" fill="black"/>
<path d="M368 13.4435C368 20.8681 362.616 26.8869 356.5 26.8869C350.384 26.8869 345 20.8681 345 13.4435C345 6.01885 350.384 0 356.5 0C362.616 0 368 6.01885 368 13.4435Z" fill="black"/>
<path d="M465.5 3.69543L468.451 41.4238H462.549L465.5 3.69543Z" fill="black"/>
<path d="M477 15.4435C477 22.8681 471.616 28.8869 465.5 28.8869C459.384 28.8869 454 22.8681 454 15.4435C454 8.01885 459.384 2 465.5 2C471.616 2 477 8.01885 477 15.4435Z" fill="black"/>
<path d="M66.5 11.2064L68.6811 38.0516H64.3189L66.5 11.2064Z" fill="black"/>
<path d="M75 19.5655C75 24.8484 71.0206 29.1311 66.5 29.1311C61.9794 29.1311 58 24.8484 58 19.5655C58 14.2826 61.9794 10 66.5 10C71.0206 10 75 14.2826 75 19.5655Z" fill="black"/>
<path d="M308.5 11.2064L310.681 38.0516H306.319L308.5 11.2064Z" fill="black"/>
<path d="M317 19.5655C317 24.8484 313.021 29.1311 308.5 29.1311C303.979 29.1311 300 24.8484 300 19.5655C300 14.2826 303.979 10 308.5 10C313.021 10 317 14.2826 317 19.5655Z" fill="black"/>
<path d="M504.5 15.9456L506.168 36.9864H502.832L504.5 15.9456Z" fill="black"/>
<path d="M511 22.4973C511 26.638 507.957 29.9946 504.5 29.9946C501.043 29.9946 498 26.638 498 22.4973C498 18.3567 501.043 15 504.5 15C507.957 15 511 18.3567 511 22.4973Z" fill="black"/>
<path d="M323.5 15.9456L325.168 36.9864H321.832L323.5 15.9456Z" fill="black"/>
<path d="M330 22.4973C330 26.638 326.957 29.9946 323.5 29.9946C320.043 29.9946 317 26.638 317 22.4973C317 18.3567 320.043 15 323.5 15C326.957 15 330 18.3567 330 22.4973Z" fill="black"/>
<path d="M169.5 14.9456L171.168 35.9864H167.832L169.5 14.9456Z" fill="black"/>
<path d="M176 21.4973C176 25.638 172.957 28.9946 169.5 28.9946C166.043 28.9946 163 25.638 163 21.4973C163 17.3567 166.043 14 169.5 14C172.957 14 176 17.3567 176 21.4973Z" fill="black"/>
<path d="M26.9999 15.0433L28.7961 38.2608H25.2037L26.9999 15.0433Z" fill="black"/>
<path d="M34 22.2729C34 26.8419 30.7228 30.5458 27 30.5458C23.2772 30.5458 20 26.8419 20 22.2729C20 17.7039 23.2772 14 27 14C30.7228 14 34 17.7039 34 22.2729Z" fill="black"/>
<path d="M181 13.0433L182.796 36.2608H179.204L181 13.0433Z" fill="black"/>
<path d="M188 20.2729C188 24.8419 184.723 28.5458 181 28.5458C177.277 28.5458 174 24.8419 174 20.2729C174 15.7039 177.277 12 181 12C184.723 12 188 15.7039 188 20.2729Z" fill="black"/>
<path d="M491 13.0433L492.796 36.2608H489.204L491 13.0433Z" fill="black"/>
<path d="M498 20.2729C498 24.8419 494.723 28.5458 491 28.5458C487.277 28.5458 484 24.8419 484 20.2729C484 15.7039 487.277 12 491 12C494.723 12 498 15.7039 498 20.2729Z" fill="black"/>
<path d="M11.0005 3.56506L13.8231 38.3913H8.17787L11.0005 3.56506Z" fill="black"/>
<path d="M22 14.4093C22 21.2628 16.8501 26.8187 11 26.8187C5.14987 26.8187 0 21.2628 0 14.4093C0 7.55586 5.14987 2 11 2C16.8501 2 22 7.55586 22 14.4093Z" fill="black"/>
<path d="M132 9.36938L134.566 39.8423H129.434L132 9.36938Z" fill="black"/>
<path d="M142 18.8582C142 24.855 137.318 29.7163 132 29.7163C126.682 29.7163 122 24.855 122 18.8582C122 12.8614 126.682 8 132 8C137.318 8 142 12.8614 142 18.8582Z" fill="black"/>
<path d="M207 8.40198L209.566 39.6005H204.434L207 8.40198Z" fill="black"/>
<path d="M217 18.1167C217 24.2563 212.318 29.2334 207 29.2334C201.682 29.2334 197 24.2563 197 18.1167C197 11.9771 201.682 7 207 7C212.318 7 217 11.9771 217 18.1167Z" fill="black"/>
<path d="M422 3.56506L424.823 38.3913H419.178L422 3.56506Z" fill="black"/>
<path d="M433 14.4093C433 21.2628 427.85 26.8187 422 26.8187C416.15 26.8187 411 21.2628 411 14.4093C411 7.55586 416.15 2 422 2C427.85 2 433 7.55586 433 14.4093Z" fill="black"/>
<path d="M929 13.0433L930.796 36.2608H927.204L929 13.0433Z" fill="black"/>
<path d="M936 20.2729C936 24.8419 932.723 28.5458 929 28.5458C925.277 28.5458 922 24.8419 922 20.2729C922 15.7039 925.277 12 929 12C932.723 12 936 15.7039 936 20.2729Z" fill="black"/>
<path d="M808 14.0433L809.796 37.2608H806.204L808 14.0433Z" fill="black"/>
<path d="M815 21.2729C815 25.8419 811.723 29.5458 808 29.5458C804.277 29.5458 801 25.8419 801 21.2729C801 16.7039 804.277 13 808 13C811.723 13 815 16.7039 815 21.2729Z" fill="black"/>
<path d="M638.5 8.40198L640.938 39.6005H636.063L638.5 8.40198Z" fill="black"/>
<path d="M648 18.1167C648 24.2563 643.552 29.2334 638.5 29.2334C633.448 29.2334 629 24.2563 629 18.1167C629 11.9771 633.448 7 638.5 7C643.552 7 648 11.9771 648 18.1167Z" fill="black"/>
<path d="M781.5 1.69543L784.451 39.4238H778.549L781.5 1.69543Z" fill="black"/>
<path d="M793 13.4435C793 20.8681 787.616 26.8869 781.5 26.8869C775.384 26.8869 770 20.8681 770 13.4435C770 6.01885 775.384 0 781.5 0C787.616 0 793 6.01885 793 13.4435Z" fill="black"/>
<path d="M891.5 1.69543L894.451 39.4238H888.549L891.5 1.69543Z" fill="black"/>
<path d="M903 13.4435C903 20.8681 897.616 26.8869 891.5 26.8869C885.384 26.8869 880 20.8681 880 13.4435C880 6.01885 885.384 0 891.5 0C897.616 0 903 6.01885 903 13.4435Z" fill="black"/>
<path d="M1000.5 3.69543L1003.45 41.4238H997.549L1000.5 3.69543Z" fill="black"/>
<path d="M1012 15.4435C1012 22.8681 1006.62 28.8869 1000.5 28.8869C994.384 28.8869 989 22.8681 989 15.4435C989 8.01885 994.384 2 1000.5 2C1006.62 2 1012 8.01885 1012 15.4435Z" fill="black"/>
<path d="M601.5 11.2064L603.681 38.0516H599.319L601.5 11.2064Z" fill="black"/>
<path d="M610 19.5655C610 24.8484 606.021 29.1311 601.5 29.1311C596.979 29.1311 593 24.8484 593 19.5655C593 14.2826 596.979 10 601.5 10C606.021 10 610 14.2826 610 19.5655Z" fill="black"/>
<path d="M843.5 11.2064L845.681 38.0516H841.319L843.5 11.2064Z" fill="black"/>
<path d="M852 19.5655C852 24.8484 848.021 29.1311 843.5 29.1311C838.979 29.1311 835 24.8484 835 19.5655C835 14.2826 838.979 10 843.5 10C848.021 10 852 14.2826 852 19.5655Z" fill="black"/>
<path d="M1039.5 15.9456L1041.17 36.9864H1037.83L1039.5 15.9456Z" fill="black"/>
<path d="M1046 22.4973C1046 26.638 1042.96 29.9946 1039.5 29.9946C1036.04 29.9946 1033 26.638 1033 22.4973C1033 18.3567 1036.04 15 1039.5 15C1042.96 15 1046 18.3567 1046 22.4973Z" fill="black"/>
<path d="M858.5 15.9456L860.168 36.9864H856.832L858.5 15.9456Z" fill="black"/>
<path d="M865 22.4973C865 26.638 861.957 29.9946 858.5 29.9946C855.043 29.9946 852 26.638 852 22.4973C852 18.3567 855.043 15 858.5 15C861.957 15 865 18.3567 865 22.4973Z" fill="black"/>
<path d="M704.5 14.9456L706.168 35.9864H702.832L704.5 14.9456Z" fill="black"/>
<path d="M711 21.4973C711 25.638 707.957 28.9946 704.5 28.9946C701.043 28.9946 698 25.638 698 21.4973C698 17.3567 701.043 14 704.5 14C707.957 14 711 17.3567 711 21.4973Z" fill="black"/>
<path d="M562 15.0433L563.796 38.2608H560.204L562 15.0433Z" fill="black"/>
<path d="M569 22.2729C569 26.8419 565.723 30.5458 562 30.5458C558.277 30.5458 555 26.8419 555 22.2729C555 17.7039 558.277 14 562 14C565.723 14 569 17.7039 569 22.2729Z" fill="black"/>
<path d="M716 13.0433L717.796 36.2608H714.204L716 13.0433Z" fill="black"/>
<path d="M723 20.2729C723 24.8419 719.723 28.5458 716 28.5458C712.277 28.5458 709 24.8419 709 20.2729C709 15.7039 712.277 12 716 12C719.723 12 723 15.7039 723 20.2729Z" fill="black"/>
<path d="M1026 13.0433L1027.8 36.2608H1024.2L1026 13.0433Z" fill="black"/>
<path d="M1033 20.2729C1033 24.8419 1029.72 28.5458 1026 28.5458C1022.28 28.5458 1019 24.8419 1019 20.2729C1019 15.7039 1022.28 12 1026 12C1029.72 12 1033 15.7039 1033 20.2729Z" fill="black"/>
<path d="M546 3.56506L548.823 38.3913H543.178L546 3.56506Z" fill="black"/>
<path d="M557 14.4093C557 21.2628 551.85 26.8187 546 26.8187C540.15 26.8187 535 21.2628 535 14.4093C535 7.55586 540.15 2 546 2C551.85 2 557 7.55586 557 14.4093Z" fill="black"/>
<path d="M667 3.56506L669.823 38.3913H664.178L667 3.56506Z" fill="black"/>
<path d="M678 14.4093C678 21.2628 672.85 26.8187 667 26.8187C661.15 26.8187 656 21.2628 656 14.4093C656 7.55586 661.15 2 667 2C672.85 2 678 7.55586 678 14.4093Z" fill="black"/>
<path d="M742 3.56506L744.823 38.3913H739.178L742 3.56506Z" fill="black"/>
<path d="M753 14.4093C753 21.2628 747.85 26.8187 742 26.8187C736.15 26.8187 731 21.2628 731 14.4093C731 7.55586 736.15 2 742 2C747.85 2 753 7.55586 753 14.4093Z" fill="black"/>
<path d="M957 3.56506L959.823 38.3913H954.178L957 3.56506Z" fill="black"/>
<path d="M968 14.4093C968 21.2628 962.85 26.8187 957 26.8187C951.15 26.8187 946 21.2628 946 14.4093C946 7.55586 951.15 2 957 2C962.85 2 968 7.55586 968 14.4093Z" fill="black"/>
<path d="M1464 13.0433L1465.8 36.2608H1462.2L1464 13.0433Z" fill="black"/>
<path d="M1471 20.2729C1471 24.8419 1467.72 28.5458 1464 28.5458C1460.28 28.5458 1457 24.8419 1457 20.2729C1457 15.7039 1460.28 12 1464 12C1467.72 12 1471 15.7039 1471 20.2729Z" fill="black"/>
<path d="M1343 14.0433L1344.8 37.2608H1341.2L1343 14.0433Z" fill="black"/>
<path d="M1350 21.2729C1350 25.8419 1346.72 29.5458 1343 29.5458C1339.28 29.5458 1336 25.8419 1336 21.2729C1336 16.7039 1339.28 13 1343 13C1346.72 13 1350 16.7039 1350 21.2729Z" fill="black"/>
<path d="M1173.5 8.40198L1175.94 39.6005H1171.06L1173.5 8.40198Z" fill="black"/>
<path d="M1183 18.1167C1183 24.2563 1178.55 29.2334 1173.5 29.2334C1168.45 29.2334 1164 24.2563 1164 18.1167C1164 11.9771 1168.45 7 1173.5 7C1178.55 7 1183 11.9771 1183 18.1167Z" fill="black"/>
<path d="M1316.5 1.69543L1319.45 39.4238H1313.55L1316.5 1.69543Z" fill="black"/>
<path d="M1328 13.4435C1328 20.8681 1322.62 26.8869 1316.5 26.8869C1310.38 26.8869 1305 20.8681 1305 13.4435C1305 6.01885 1310.38 0 1316.5 0C1322.62 0 1328 6.01885 1328 13.4435Z" fill="black"/>
<path d="M1426.5 1.69543L1429.45 39.4238H1423.55L1426.5 1.69543Z" fill="black"/>
<path d="M1438 13.4435C1438 20.8681 1432.62 26.8869 1426.5 26.8869C1420.38 26.8869 1415 20.8681 1415 13.4435C1415 6.01885 1420.38 0 1426.5 0C1432.62 0 1438 6.01885 1438 13.4435Z" fill="black"/>
<path d="M1535.5 3.69543L1538.45 41.4238H1532.55L1535.5 3.69543Z" fill="black"/>
<path d="M1547 15.4435C1547 22.8681 1541.62 28.8869 1535.5 28.8869C1529.38 28.8869 1524 22.8681 1524 15.4435C1524 8.01885 1529.38 2 1535.5 2C1541.62 2 1547 8.01885 1547 15.4435Z" fill="black"/>
<path d="M1136.5 11.2064L1138.68 38.0516H1134.32L1136.5 11.2064Z" fill="black"/>
<path d="M1145 19.5655C1145 24.8484 1141.02 29.1311 1136.5 29.1311C1131.98 29.1311 1128 24.8484 1128 19.5655C1128 14.2826 1131.98 10 1136.5 10C1141.02 10 1145 14.2826 1145 19.5655Z" fill="black"/>
<path d="M1378.5 11.2064L1380.68 38.0516H1376.32L1378.5 11.2064Z" fill="black"/>
<path d="M1387 19.5655C1387 24.8484 1383.02 29.1311 1378.5 29.1311C1373.98 29.1311 1370 24.8484 1370 19.5655C1370 14.2826 1373.98 10 1378.5 10C1383.02 10 1387 14.2826 1387 19.5655Z" fill="black"/>
<path d="M1574.5 15.9456L1576.17 36.9864H1572.83L1574.5 15.9456Z" fill="black"/>
<path d="M1581 22.4973C1581 26.638 1577.96 29.9946 1574.5 29.9946C1571.04 29.9946 1568 26.638 1568 22.4973C1568 18.3567 1571.04 15 1574.5 15C1577.96 15 1581 18.3567 1581 22.4973Z" fill="black"/>
<path d="M1393.5 15.9456L1395.17 36.9864H1391.83L1393.5 15.9456Z" fill="black"/>
<path d="M1400 22.4973C1400 26.638 1396.96 29.9946 1393.5 29.9946C1390.04 29.9946 1387 26.638 1387 22.4973C1387 18.3567 1390.04 15 1393.5 15C1396.96 15 1400 18.3567 1400 22.4973Z" fill="black"/>
<path d="M1239.5 14.9456L1241.17 35.9864H1237.83L1239.5 14.9456Z" fill="black"/>
<path d="M1246 21.4973C1246 25.638 1242.96 28.9946 1239.5 28.9946C1236.04 28.9946 1233 25.638 1233 21.4973C1233 17.3567 1236.04 14 1239.5 14C1242.96 14 1246 17.3567 1246 21.4973Z" fill="black"/>
<path d="M1097 15.0433L1098.8 38.2608H1095.2L1097 15.0433Z" fill="black"/>
<path d="M1104 22.2729C1104 26.8419 1100.72 30.5458 1097 30.5458C1093.28 30.5458 1090 26.8419 1090 22.2729C1090 17.7039 1093.28 14 1097 14C1100.72 14 1104 17.7039 1104 22.2729Z" fill="black"/>
<path d="M1251 13.0433L1252.8 36.2608H1249.2L1251 13.0433Z" fill="black"/>
<path d="M1258 20.2729C1258 24.8419 1254.72 28.5458 1251 28.5458C1247.28 28.5458 1244 24.8419 1244 20.2729C1244 15.7039 1247.28 12 1251 12C1254.72 12 1258 15.7039 1258 20.2729Z" fill="black"/>
<path d="M1561 13.0433L1562.8 36.2608H1559.2L1561 13.0433Z" fill="black"/>
<path d="M1568 20.2729C1568 24.8419 1564.72 28.5458 1561 28.5458C1557.28 28.5458 1554 24.8419 1554 20.2729C1554 15.7039 1557.28 12 1561 12C1564.72 12 1568 15.7039 1568 20.2729Z" fill="black"/>
<path d="M1081 3.56506L1083.82 38.3913H1078.18L1081 3.56506Z" fill="black"/>
<path d="M1092 14.4093C1092 21.2628 1086.85 26.8187 1081 26.8187C1075.15 26.8187 1070 21.2628 1070 14.4093C1070 7.55586 1075.15 2 1081 2C1086.85 2 1092 7.55586 1092 14.4093Z" fill="black"/>
<path d="M1202 3.56506L1204.82 38.3913H1199.18L1202 3.56506Z" fill="black"/>
<path d="M1213 14.4093C1213 21.2628 1207.85 26.8187 1202 26.8187C1196.15 26.8187 1191 21.2628 1191 14.4093C1191 7.55586 1196.15 2 1202 2C1207.85 2 1213 7.55586 1213 14.4093Z" fill="black"/>
<path d="M1277 3.56506L1279.82 38.3913H1274.18L1277 3.56506Z" fill="black"/>
<path d="M1288 14.4093C1288 21.2628 1282.85 26.8187 1277 26.8187C1271.15 26.8187 1266 21.2628 1266 14.4093C1266 7.55586 1271.15 2 1277 2C1282.85 2 1288 7.55586 1288 14.4093Z" fill="black"/>
<path d="M1492 3.56506L1494.82 38.3913H1489.18L1492 3.56506Z" fill="black"/>
<path d="M1503 14.4093C1503 21.2628 1497.85 26.8187 1492 26.8187C1486.15 26.8187 1481 21.2628 1481 14.4093C1481 7.55586 1486.15 2 1492 2C1497.85 2 1503 7.55586 1503 14.4093Z" fill="black"/>
<path d="M1999 13.0433L2000.8 36.2608H1997.2L1999 13.0433Z" fill="black"/>
<path d="M2006 20.2729C2006 24.8419 2002.72 28.5458 1999 28.5458C1995.28 28.5458 1992 24.8419 1992 20.2729C1992 15.7039 1995.28 12 1999 12C2002.72 12 2006 15.7039 2006 20.2729Z" fill="black"/>
<path d="M1878 14.0433L1879.8 37.2608H1876.2L1878 14.0433Z" fill="black"/>
<path d="M1885 21.2729C1885 25.8419 1881.72 29.5458 1878 29.5458C1874.28 29.5458 1871 25.8419 1871 21.2729C1871 16.7039 1874.28 13 1878 13C1881.72 13 1885 16.7039 1885 21.2729Z" fill="black"/>
<path d="M1708.5 8.40198L1710.94 39.6005H1706.06L1708.5 8.40198Z" fill="black"/>
<path d="M1718 18.1167C1718 24.2563 1713.55 29.2334 1708.5 29.2334C1703.45 29.2334 1699 24.2563 1699 18.1167C1699 11.9771 1703.45 7 1708.5 7C1713.55 7 1718 11.9771 1718 18.1167Z" fill="black"/>
<path d="M1851.5 1.69543L1854.45 39.4238H1848.55L1851.5 1.69543Z" fill="black"/>
<path d="M1863 13.4435C1863 20.8681 1857.62 26.8869 1851.5 26.8869C1845.38 26.8869 1840 20.8681 1840 13.4435C1840 6.01885 1845.38 0 1851.5 0C1857.62 0 1863 6.01885 1863 13.4435Z" fill="black"/>
<path d="M1961.5 1.69543L1964.45 39.4238H1958.55L1961.5 1.69543Z" fill="black"/>
<path d="M1973 13.4435C1973 20.8681 1967.62 26.8869 1961.5 26.8869C1955.38 26.8869 1950 20.8681 1950 13.4435C1950 6.01885 1955.38 0 1961.5 0C1967.62 0 1973 6.01885 1973 13.4435Z" fill="black"/>
<path d="M2070.5 3.69543L2073.45 41.4238H2067.55L2070.5 3.69543Z" fill="black"/>
<path d="M2082 15.4435C2082 22.8681 2076.62 28.8869 2070.5 28.8869C2064.38 28.8869 2059 22.8681 2059 15.4435C2059 8.01885 2064.38 2 2070.5 2C2076.62 2 2082 8.01885 2082 15.4435Z" fill="black"/>
<path d="M1671.5 11.2064L1673.68 38.0516H1669.32L1671.5 11.2064Z" fill="black"/>
<path d="M1680 19.5655C1680 24.8484 1676.02 29.1311 1671.5 29.1311C1666.98 29.1311 1663 24.8484 1663 19.5655C1663 14.2826 1666.98 10 1671.5 10C1676.02 10 1680 14.2826 1680 19.5655Z" fill="black"/>
<path d="M1913.5 11.2064L1915.68 38.0516H1911.32L1913.5 11.2064Z" fill="black"/>
<path d="M1922 19.5655C1922 24.8484 1918.02 29.1311 1913.5 29.1311C1908.98 29.1311 1905 24.8484 1905 19.5655C1905 14.2826 1908.98 10 1913.5 10C1918.02 10 1922 14.2826 1922 19.5655Z" fill="black"/>
<path d="M2109.5 15.9456L2111.17 36.9864H2107.83L2109.5 15.9456Z" fill="black"/>
<path d="M2116 22.4973C2116 26.638 2112.96 29.9946 2109.5 29.9946C2106.04 29.9946 2103 26.638 2103 22.4973C2103 18.3567 2106.04 15 2109.5 15C2112.96 15 2116 18.3567 2116 22.4973Z" fill="black"/>
<path d="M1928.5 15.9456L1930.17 36.9864H1926.83L1928.5 15.9456Z" fill="black"/>
<path d="M1935 22.4973C1935 26.638 1931.96 29.9946 1928.5 29.9946C1925.04 29.9946 1922 26.638 1922 22.4973C1922 18.3567 1925.04 15 1928.5 15C1931.96 15 1935 18.3567 1935 22.4973Z" fill="black"/>
<path d="M1774.5 14.9456L1776.17 35.9864H1772.83L1774.5 14.9456Z" fill="black"/>
<path d="M1781 21.4973C1781 25.638 1777.96 28.9946 1774.5 28.9946C1771.04 28.9946 1768 25.638 1768 21.4973C1768 17.3567 1771.04 14 1774.5 14C1777.96 14 1781 17.3567 1781 21.4973Z" fill="black"/>
<path d="M1632 15.0433L1633.8 38.2608H1630.2L1632 15.0433Z" fill="black"/>
<path d="M1639 22.2729C1639 26.8419 1635.72 30.5458 1632 30.5458C1628.28 30.5458 1625 26.8419 1625 22.2729C1625 17.7039 1628.28 14 1632 14C1635.72 14 1639 17.7039 1639 22.2729Z" fill="black"/>
<path d="M1786 13.0433L1787.8 36.2608H1784.2L1786 13.0433Z" fill="black"/>
<path d="M1793 20.2729C1793 24.8419 1789.72 28.5458 1786 28.5458C1782.28 28.5458 1779 24.8419 1779 20.2729C1779 15.7039 1782.28 12 1786 12C1789.72 12 1793 15.7039 1793 20.2729Z" fill="black"/>
<path d="M2096 13.0433L2097.8 36.2608H2094.2L2096 13.0433Z" fill="black"/>
<path d="M2103 20.2729C2103 24.8419 2099.72 28.5458 2096 28.5458C2092.28 28.5458 2089 24.8419 2089 20.2729C2089 15.7039 2092.28 12 2096 12C2099.72 12 2103 15.7039 2103 20.2729Z" fill="black"/>
<path d="M1616 3.56506L1618.82 38.3913H1613.18L1616 3.56506Z" fill="black"/>
<path d="M1627 14.4093C1627 21.2628 1621.85 26.8187 1616 26.8187C1610.15 26.8187 1605 21.2628 1605 14.4093C1605 7.55586 1610.15 2 1616 2C1621.85 2 1627 7.55586 1627 14.4093Z" fill="black"/>
<path d="M1737 3.56506L1739.82 38.3913H1734.18L1737 3.56506Z" fill="black"/>
<path d="M1748 14.4093C1748 21.2628 1742.85 26.8187 1737 26.8187C1731.15 26.8187 1726 21.2628 1726 14.4093C1726 7.55586 1731.15 2 1737 2C1742.85 2 1748 7.55586 1748 14.4093Z" fill="black"/>
<path d="M1812 3.56506L1814.82 38.3913H1809.18L1812 3.56506Z" fill="black"/>
<path d="M1823 14.4093C1823 21.2628 1817.85 26.8187 1812 26.8187C1806.15 26.8187 1801 21.2628 1801 14.4093C1801 7.55586 1806.15 2 1812 2C1817.85 2 1823 7.55586 1823 14.4093Z" fill="black"/>
<path d="M2027 3.56506L2029.82 38.3913H2024.18L2027 3.56506Z" fill="black"/>
<path d="M2038 14.4093C2038 21.2628 2032.85 26.8187 2027 26.8187C2021.15 26.8187 2016 21.2628 2016 14.4093C2016 7.55586 2021.15 2 2027 2C2032.85 2 2038 7.55586 2038 14.4093Z" fill="black"/>
</svg>
